<?xml version="1.0" encoding="utf-8"?>
<!-- Generator: Adobe Illustrator 25.3.0, SVG Export Plug-In . SVG Version: 6.00 Build 0)  -->
<svg version="1.1" id="Layer_1" xmlns="http://www.w3.org/2000/svg" xmlns:xlink="http://www.w3.org/1999/xlink" x="0px" y="0px"
	 viewBox="0 0 162.4 48.3" style="enable-background:new 0 0 162.4 48.3;" xml:space="preserve">
<style type="text/css">
	.st0{fill:#003946;}
	.st1{fill:#FDBE14;}
</style>
<g>
	<path class="st0" d="M64.5,8.9c-0.4-1.7-1.1-5-4.6-5c-1.9,0-3.3,1.2-3.3,3.3c0,5.1,10.5,4.7,10.5,11.7c0,4.7-4.1,6.4-8.1,6.4
		c-2.9,0-4.7-0.8-5.8-1.3c-0.8-2.1-1-3.5-1-6.2l1.5-0.3c0.5,2,1.5,6.6,5.7,6.6c2.1,0,3.4-1.4,3.4-3.6c0-5.5-10.2-5.1-10.2-11.8
		c0-4.2,3.1-5.9,7.3-5.9c2.5,0,3.9,0.5,5.2,1.2c0.3,1.6,0.4,3.3,0.4,5H64.5z"/>
	<path class="st0" d="M80.4,23.7c-1,0.6-2.5,1.7-5,1.7c-5.1,0-5.3-3-5.3-6.6V14c0-1.1,0-2.6-1-2.6c-0.5,0-0.9,0.2-1.1,0.2v-1
		c2.5-0.8,4.3-1.1,6-1.2v9.2c0,2.6,0.5,4.8,3.7,4.8c1.2,0,2-0.6,2.5-0.8V14c0-1.1,0-2.6-1-2.6c-0.5,0-0.9,0.2-1.1,0.2v-1
		c2.5-0.8,4.3-1.1,6-1.2v9.8c0,2.7,0,4,1.1,4c0.2,0,0.6,0,0.9,0l0.1,0.9c-1.5,0.5-3.3,1-5,1.3L80.4,23.7z"/>
	<path class="st0" d="M89.3,14c0-1.1,0-2.6-1-2.6c-0.5,0-0.9,0.2-1.1,0.2v-1c2.5-0.8,4.2-1.1,5.9-1.2v1.9c0.8-0.7,2.4-1.9,5.2-1.9
		c3,0,5,1.4,5,5.8v6.5c0,1.7,0.2,2.1,1.3,2.2l0.7,0.1v0.9h-8V24l0.7-0.1c1.2-0.1,1.3-0.5,1.3-2.2v-4.7c0-2.6,0-5.7-3.4-5.7
		c-1.3,0-2.2,0.7-2.7,1.2v9.2c0,1.7,0.2,2.1,1.3,2.2l0.7,0.1v0.9h-7.9V24l0.7-0.1c1.1-0.1,1.3-0.5,1.3-2.2V14z"/>
	<path class="st0" d="M111.4,24l0.8-0.1c1.5-0.3,1.5-0.2,1.5-3.9v-12c0-3.2,0-3.6-1.5-3.8L111.4,4V3.2h8.9V4l-0.8,0.1
		c-1.5,0.2-1.5,0.6-1.5,3.8v15.2c1,0.2,2,0.5,3,0.5c4.6,0,4.7-2.2,5.6-5l1.2,0.2c-0.2,2.1-0.4,3.9-1.1,6h-15.3V24z"/>
	<path class="st0" d="M128.5,24l0.7-0.1c1.2-0.1,1.3-0.5,1.3-2.2V14c0-1.1,0-2.6-1-2.6c-0.5,0-0.9,0.2-1,0.2v-1
		c2.5-0.8,4.3-1.1,6-1.2v12.3c0,1.7,0.2,2.1,1.3,2.2l0.7,0.1v0.9h-8V24z M130,4.4c0-1.2,1-2.3,2.3-2.3c1.2,0,2.3,1,2.3,2.3
		c0,1.4-1.1,2.3-2.3,2.3C131,6.7,130,5.7,130,4.4z"/>
	<path class="st0" d="M139.8,9.9c0-4.6,2.3-9.2,7.4-9.2c1.7,0,2.9,0.5,3.6,1.1c-0.2,1-0.5,1.6-1.3,2.5h-0.2
		c-0.6-0.6-2.1-1.9-3.4-1.9c-2,0-2.1,2.7-2.1,5.7v1.9c1,0,3,0.2,4.1,0.3v0.9c-1.4,0.2-2.7,0.3-4.1,0.3v10.3c0,1.7,0.2,2.1,1.4,2.2
		l1.3,0.1v0.9h-8.7V24l0.7-0.1c1.2-0.1,1.4-0.5,1.4-2.2V11.4V9.9z"/>
	<path class="st0" d="M162.3,23.2c-0.9,0.7-2.9,2.1-6.2,2.1c-3.9,0-7.7-2.5-7.7-7.7c0-5.2,3.8-8.2,7.5-8.2c5.3,0,6.1,3.4,6.5,5.3
		c-2.8,1.3-6.5,2.4-9.9,3.1c0.4,2,1.3,5.5,5.8,5.5c1.8,0,3.1-0.7,3.6-1L162.3,23.2z M158.4,15c-0.2-2.4-1.2-4.3-3.3-4.3
		c-2.9,0-2.9,5.1-2.9,5.7C154.4,16,156.4,15.6,158.4,15z"/>
</g>
<g>
	<path class="st1" d="M23.6,3.3c-0.1-0.6-0.1-1.3,0-1.9c0-0.3,0.1-0.6,0.2-0.9c0-0.1,0-0.2,0.1-0.3c0-0.1-0.1-0.2-0.2-0.1
		c-0.9,0.7-1.6,1.7-2.2,2.6c-0.5,0.8-0.8,1.7-0.9,2.6c1.2,0.1,2.3,0.4,3.4,0.7C23.9,5.1,23.7,4.2,23.6,3.3z"/>
	<path class="st1" d="M15.4,5.4c1-0.2,2.1-0.2,3.1-0.2c0-0.1-0.1-0.3-0.1-0.4c-0.1-0.4-0.4-0.8-0.6-1.3c-0.2-0.5-0.4-0.9-0.5-1.4
		c-0.1-0.4-0.2-0.7-0.2-1.1c0-0.2,0-0.4,0-0.6c0,0,0-0.1,0-0.2C17.1,0,16.9,0,16.9,0c-0.5,0.7-0.9,1.6-1.2,2.4
		c-0.2,0.6-0.3,1.2-0.4,1.9c0,0.3,0,0.6,0.1,0.8C15.4,5.2,15.4,5.3,15.4,5.4z"/>
	<path class="st1" d="M10.4,6.7c0,0.1,0.1,0.1,0.1,0.2c0.1,0,0.2-0.1,0.3-0.1c0.8-0.3,1.5-0.6,2.3-0.8c0-0.1-0.1-0.2-0.2-0.3
		c-0.2-0.3-0.5-0.6-0.8-0.9c-0.3-0.3-0.6-0.7-0.8-1.1c-0.2-0.3-0.3-0.6-0.5-0.9c-0.1-0.2-0.1-0.4-0.2-0.5c0,0,0-0.1,0-0.2
		c0-0.1-0.2-0.1-0.2,0c-0.3,0.7-0.4,1.5-0.4,2.4c0,0.6,0,1.1,0.1,1.7C10.3,6.2,10.3,6.5,10.4,6.7z"/>
	<path class="st1" d="M29.8,9.2c1.1,0.9,2.1,1.8,2.9,2.9c0.7-0.9,1-1.9,1.5-2.9c0.4-0.7,0.8-1.3,1.3-1.9c0.2-0.3,0.5-0.5,0.8-0.8
		c0.1-0.1,0.2-0.2,0.3-0.3c0.1-0.1,0-0.3-0.1-0.3c-1.3,0.1-2.7,0.5-3.9,1.1C31.5,7.6,30.5,8.3,29.8,9.2z"/>
	<path class="st1" d="M35.2,16.2c0.1,0.2,0.2,0.4,0.3,0.7c1-0.7,1.6-1.8,2.4-2.6c0.6-0.6,1.2-1.2,1.8-1.7c0.3-0.2,0.7-0.4,1-0.6
		c0.1,0,0.2-0.1,0.4-0.2c0.1-0.1,0.1-0.3,0-0.3c-1.4-0.2-3-0.2-4.4,0.1c-1.2,0.2-2.4,0.7-3.4,1.4C34.1,13.9,34.7,15,35.2,16.2z"/>
	<path class="st1" d="M29.4,5.5c0.1-0.7,0.3-1.4,0.6-2c0.1-0.3,0.3-0.6,0.5-0.9c0-0.1,0.1-0.2,0.2-0.3c0.1-0.1,0-0.3-0.2-0.2
		c-1.1,0.5-2.3,1.2-3.2,2c-0.8,0.7-1.5,1.6-1.9,2.5c1.2,0.5,2.3,1.1,3.4,1.8C29.2,7.5,29.2,6.5,29.4,5.5z"/>
	<path class="st1" d="M39.8,23.6c-1-0.4-2-0.6-3.1-0.5c0,1.3-0.1,2.6-0.3,3.8c1-0.1,2-0.5,3-0.8c0.7-0.2,1.4-0.3,2.1-0.4
		c0.3,0,0.7,0,1,0c0.1,0,0.2,0,0.4,0c0.1,0,0.2-0.1,0.1-0.2C42.1,24.7,41,24,39.8,23.6z"/>
	<path class="st1" d="M43.2,18.4c-1.2-0.6-2.6-1-4-1.1c-1.1-0.1-2.3,0-3.4,0.4c0.5,1.3,0.8,2.7,0.9,4.1c1.1-0.4,1.9-1.2,2.9-1.7
		c0.7-0.4,1.3-0.7,2.1-1c0.3-0.1,0.7-0.2,1.1-0.3c0.1,0,0.2-0.1,0.4-0.1C43.3,18.7,43.3,18.5,43.2,18.4z"/>
	<path class="st1" d="M30.5,37.6c-0.7,0.6-1.4,1.2-2.2,1.7c0.5,0.5,1.2,0.8,1.8,1.3c0.4,0.3,0.8,0.6,1.2,1c0.2,0.2,0.3,0.4,0.5,0.6
		c0,0,0.1,0.1,0.2,0.2c0.1,0.1,0.2,0.1,0.2,0c0-0.9-0.1-1.9-0.4-2.7C31.4,38.8,31,38.1,30.5,37.6z"/>
	<path class="st1" d="M34,33.4c-0.6,0.9-1.2,1.7-1.9,2.5c0.7,0.4,1.6,0.5,2.4,0.8c0.5,0.2,1.1,0.4,1.6,0.7c0.2,0.1,0.5,0.3,0.7,0.5
		c0,0,0.1,0.1,0.2,0.2c0.1,0.1,0.2,0,0.2-0.1c-0.3-1-0.8-1.9-1.3-2.8C35.3,34.5,34.7,33.8,34,33.4z"/>
	<path class="st1" d="M38.7,29.7c-0.7-0.6-1.6-1.1-2.5-1.3c-0.3,1.1-0.7,2.2-1.2,3.3c0.9,0.2,1.8,0.1,2.8,0.1c0.6,0,1.3,0.1,1.9,0.2
		c0.3,0.1,0.6,0.2,0.9,0.3c0.1,0,0.2,0.1,0.3,0.1c0.1,0,0.2-0.1,0.2-0.2C40.4,31.3,39.5,30.4,38.7,29.7z"/>
	<g>
		<path class="st1" d="M14.7,38.6c-3,0.4-5.7,0.1-7.9-0.8c1,0.8,2,1.5,3.1,2.1c2.7,1.4,5.7,2.1,8.9,2c1.4,0,2.7-0.2,4-0.5
			c-2.2-0.2-4.2-0.8-6.1-1.7C16,39.3,15.4,39,14.7,38.6z"/>
		<path class="st1" d="M30.8,31.1c0,0,0.1-0.1,0-0.2c-0.1-0.1-0.2,0-0.2,0c-1.8,1.8-4,3.4-6.4,4.7c-0.5,0.3-0.9,0.5-1.4,0.7
			c-2.1,1-4.2,1.7-6.2,2.1c0.6,0.3,1.2,0.7,1.9,0.9c1.9,0.8,3.9,1.4,6,1.7c0.8-0.3,1.6-0.6,2.4-1c-1.1-0.8-2.2-1.8-3.2-2.7
			C26.7,35.5,29.2,33.3,30.8,31.1z"/>
		<path class="st1" d="M2,27.6c0.1,0.1,0.3,0.2,0.4,0.2c0.6,0.3,1.2,0.5,1.9,0.6c0.6,0.1,1.2,0.2,1.8,0.2c-0.3-0.6-0.5-1.3-0.7-1.9
			c-0.3-1-0.6-2-0.7-3.1c-0.1-0.4-0.1-0.7-0.1-1.1c0-0.3-0.1-0.6-0.1-0.9c0-0.2,0-0.3,0-0.5c0-0.6,0-1.2,0-1.8
			c-0.7-0.1-1.3-0.3-1.9-0.5c-0.1,0-0.1-0.1-0.2-0.1c-0.3-0.2-0.6-0.4-0.8-0.7c-0.1-0.1-0.2-0.3-0.3-0.5c-0.1-0.2-0.1-0.3-0.2-0.5
			c-0.3,0.7-0.5,1.5-0.7,2.2c-0.1,0.3-0.1,0.6-0.2,0.9c-0.1,0.6-0.2,1.2-0.2,1.9c0,0.2,0,0.3,0,0.5c0,0.5,0,0.9,0,1.4
			c0,0.6,0.1,1.2,0.1,1.8C0.6,26.6,1.2,27.2,2,27.6z"/>
		<path class="st1" d="M7.4,19.4c-0.5,0.1-0.9,0.1-1.4,0.1c0,0.4,0,0.9,0,1.3c0,0,0,0,0,0c0,0.1,0,0.3,0,0.4c0,0.2,0,0.5,0.1,0.7
			c0.1,1.1,0.3,2.2,0.6,3.3c0.3,1.2,0.7,2.3,1.2,3.4c2.4-0.1,5.2-0.7,8.1-1.8c-1.1-2.1-2.1-4.2-2.9-6.2c-0.1-0.4-0.3-0.7-0.4-1.1
			c0.5-0.2,1.1-0.4,1.6-0.7c3.4-1.6,6-3.7,7.6-5.7c0.1-0.1,0.2-0.3,0.3-0.4c0,0,0.1-0.1,0-0.2c-0.1-0.1-0.2,0-0.2,0
			c-0.3,0.3-0.6,0.6-0.9,0.9c-1.5,1.3-3.5,2.6-5.8,3.6c-1,0.5-2,0.9-3,1.2c-1,0.3-1.9,0.6-2.9,0.8C8.6,19.2,8,19.3,7.4,19.4z"/>
		<path class="st1" d="M2.6,16.9c0.3,0.3,0.6,0.5,1,0.6c0.1,0,0.2,0.1,0.4,0.1c0.2,0.1,0.4,0.1,0.7,0.2c0-0.3,0.1-0.6,0.1-0.8
			c0-0.2,0.1-0.4,0.1-0.7c0.1-0.7,0.3-1.5,0.5-2.2c0.4-1.5,1.1-3,1.8-4.3c0.2-0.4,0.4-0.7,0.6-1.1C7.9,8.6,8,8.5,8,8.4
			C7.5,8.8,6.9,9.2,6.4,9.6C5.7,10.2,5,11,4.3,11.7c-1,1.2-1.8,2.4-2.5,3.8c0,0.2,0.1,0.5,0.2,0.7C2.1,16.5,2.3,16.7,2.6,16.9z"/>
		<path class="st1" d="M6.5,15c-0.1,0.3-0.1,0.5-0.1,0.8c-0.1,0.7-0.2,1.4-0.2,2.1c1.1,0,2.2-0.1,3.5-0.4c0.7-0.1,1.4-0.3,2.1-0.6
			c-0.1-0.2-0.2-0.5-0.2-0.7c-0.3-1-0.6-2-0.9-2.9c-0.1-0.3-0.2-0.6-0.3-0.9c-0.1-0.5-0.3-1-0.4-1.4c-0.2-0.9-0.4-1.7-0.5-2.3
			C9.3,8.4,9.3,8.1,9.2,7.9c0-0.1,0-0.1,0-0.2C9.1,7.8,9.1,7.9,9,8C8.8,8.4,8.6,8.7,8.4,9.1c-0.6,1.2-1.1,2.5-1.5,3.8
			C6.8,13.6,6.6,14.3,6.5,15z"/>
		<path class="st1" d="M13,37.4c-2-1.5-3.7-3.3-5-5.4c-0.3-0.5-0.7-1.1-1-1.6c-1.2,0-2.4-0.2-3.4-0.4c-0.5-0.2-1-0.3-1.5-0.6
			c-0.1-0.1-0.3-0.1-0.4-0.2c-0.4-0.3-0.8-0.6-1.1-0.9c0.2,0.9,0.5,1.7,0.9,2.6c0.1,0.1,0.1,0.3,0.2,0.4c0.2,0.4,0.4,0.9,0.7,1.3
			c0.2,0.4,0.4,0.8,0.7,1.1c0.4,0.6,0.9,1.2,1.3,1.8C6.3,37,9.4,37.7,13,37.4z"/>
		<path class="st1" d="M19.4,27.1c-0.9,0.4-1.7,0.8-2.6,1.2c-2.9,1.1-5.6,1.8-8.1,2c0.3,0.5,0.6,1.1,0.9,1.6
			c1.4,2.1,3.1,3.9,5.2,5.3c2.2-0.3,4.6-1,7-2c-1.6-1.8-2.9-3.6-4.2-5.6c0.5-0.2,1-0.4,1.4-0.7c4.4-2.2,7.8-5.1,9.6-8
			c0,0,0.1-0.1,0-0.2c-0.1-0.1-0.2,0-0.2,0C26.2,23,23.1,25.3,19.4,27.1z"/>
	</g>
</g>
<path class="st0" d="M58.3,30.5c0.2,0,0.5,0,0.8,0.1c0.7,0.2,1.2,0.4,1.6,0.6c0.3,0.2,0.5,0.5,0.5,0.9c0,0.6-0.2,0.9-0.7,0.9
	c-0.2,0-0.4-0.1-0.5-0.2c-0.4-0.3-0.9-0.9-1.6-1.9c-0.1-0.1-0.1-0.2-0.1-0.2C58.1,30.5,58.2,30.5,58.3,30.5z M59.7,34.6
	c0.1,0,0.4,0.1,0.9,0.3c0.3,0.1,0.4,0.3,0.4,0.4c0,0.1,0,0.3-0.1,0.4c-0.1,0.4-0.2,1-0.3,1.7l0,1.1c0.1,0.1,0.2,0.3,0.3,0.4
	c1-0.7,1.7-1.3,2.2-1.8c0.5-0.5,0.7-0.9,0.7-1.1c0-0.2,0.1-0.3,0.3-0.3c0.2,0,0.6,0.1,1.2,0.4c0.5,0.3,0.8,0.6,0.8,0.8
	c0,0.1-0.1,0.1-0.3,0.1c-0.3,0.1-0.7,0.3-1.2,0.6c-0.8,0.4-1.8,0.9-2.8,1.3c-0.3,0.1-0.6,0.2-0.8,0.3c1.2,1.4,2.2,2.3,3.1,3
	c1,0.7,2.5,1.5,4.5,2.4c0.4,0.1,0.6,0.3,0.6,0.4c0,0.1-0.2,0.2-0.5,0.2C68,45.4,67,45.5,66,45.5c-0.7,0-1.1-0.2-1.4-0.5
	c-0.8-0.8-2.1-2.6-4-5.4l0.1,5.7c0,0.9-0.2,1.6-0.6,2.2c-0.3,0.5-0.6,0.7-0.9,0.7c-0.1,0-0.3-0.2-0.5-0.5c-0.6-0.7-1.1-1.3-1.6-1.8
	c-0.2-0.2-0.3-0.3-0.3-0.4c0-0.1,0-0.1,0.1-0.1c0.1,0,0.2,0,0.5,0.1c0.8,0.3,1.3,0.5,1.4,0.5c0.2,0,0.3-0.3,0.4-0.8
	c0.1-1.1,0.2-3.7,0.2-7.8c0-0.8,0-1.3-0.1-1.7c0-0.1-0.1-0.2-0.2-0.2c-0.2,0-0.5,0-1,0.1c-0.5,0.1-0.9,0.1-1.2,0.1
	c-0.2,0-0.4,0-0.5-0.1c-0.2-0.1-0.3-0.2-0.3-0.3c0-0.1,0.1-0.1,0.4-0.1c0.9-0.2,1.8-0.4,2.5-0.7C59.5,34.6,59.7,34.6,59.7,34.6z
	 M57.4,38.2c0.1,0,0.4,0.2,0.8,0.5c0.3,0.3,0.5,0.5,0.5,0.7c0,0.1-0.1,0.3-0.2,0.4c-0.3,0.2-0.6,0.5-0.8,0.8
	c-0.8,1.2-1.5,2.2-2.3,2.9c-0.7,0.7-1.4,1.2-2.2,1.6c-0.7,0.3-1.2,0.5-1.6,0.5c-0.2,0-0.2,0-0.2-0.1c0-0.1,0.1-0.1,0.3-0.2
	c1.4-1,2.4-1.8,3-2.5c0.7-0.8,1.2-1.5,1.6-2.2c0.3-0.6,0.5-0.9,0.5-1.1c0-0.1-0.1-0.1-0.2-0.1c-0.1,0-0.4,0-0.7,0.1
	c-1.5,0.4-2.3,0.5-2.5,0.5c-0.2,0-0.5-0.1-0.7-0.3c-0.3-0.2-0.5-0.3-0.5-0.5c0-0.1,0.2-0.1,0.5-0.2c1.6-0.1,3.1-0.4,4.3-0.8
	C57.2,38.3,57.3,38.2,57.4,38.2z"/>
<path class="st0" d="M85.3,37.6c0.1,0,0.3,0,0.5,0c0.1,0,0.3,0,0.6-0.1c0.5-0.1,0.9-0.1,1-0.2c0.1,0,0.3,0,0.5-0.1
	c0.1,0,0.2,0,0.3-0.1c0,0.1,0,0.2,0,0.3c0,1.4,0,2.3-0.1,2.7c0,0.1,0,0.3-0.1,0.3c-0.3-0.1-0.6-0.2-0.7-0.2c-0.1,0-0.3,0-0.6,0.1
	c-0.5,0.1-1,0.1-1.6,0.2C85.2,39.9,85.2,38.9,85.3,37.6z M84,33.2c0,0.1,0,0.1,0.1,0.3c0.2,0.3,0.4,0.9,0.4,1.7c0,1.7,0,2.9-0.1,3.6
	c-0.1,0.7-0.1,1.3-0.2,1.7c0,0.1-0.1,0.3-0.1,0.4c0,0.3,0.1,0.7,0.3,1c0.1,0.2,0.3,0.4,0.4,0.4c0.1,0,0.2-0.2,0.3-0.5
	c0-0.1,0-0.2,0.1-0.4c0.1,0,0.3,0.1,0.5,0.1c0.1,0,0.3,0,0.6,0l1.3-0.1c0.1,0,0.1,0,0.2,0c0.1,0.3,0.3,0.6,0.5,1.1
	c0.1,0.2,0.2,0.4,0.3,0.4c0.2,0,0.4-0.2,0.7-0.6c0.3-0.5,0.4-0.9,0.4-1.4c-0.2-1.8-0.2-2.9-0.2-3.4c0-1.9,0-3,0.1-3.2
	c0.1-0.2,0.1-0.4,0.1-0.5c0-0.2-0.3-0.4-0.7-0.7c-0.3-0.2-0.5-0.3-0.6-0.3c-0.1,0-0.4,0.1-0.8,0.2c-0.8,0.2-1.6,0.4-2.3,0.5
	c0,0,0,0,0,0c-0.2-0.1-0.5-0.2-0.8-0.2C84.1,33,84,33.1,84,33.2z M85.3,33.9C85.3,33.8,85.3,33.8,85.3,33.9
	C85.4,33.8,85.4,33.8,85.3,33.9c0.1-0.1,0.3-0.1,0.5-0.1c0.6-0.1,1.1-0.2,1.4-0.2c0.3,0,0.5,0,0.6,0c0.2,0,0.4,0.2,0.4,0.4
	c0,0.5,0,1.5,0.1,2.8c-0.1,0-0.1,0-0.2-0.1c-0.4-0.1-0.6-0.1-0.8-0.1c0,0-0.1,0-0.2,0.1c-0.6,0.2-1.1,0.3-1.7,0.4c0,0,0,0-0.1,0
	C85.3,36.1,85.3,35,85.3,33.9z M91.4,32.1c0,0.2,0.1,0.5,0.2,0.8c0.1,0.4,0.2,1.1,0.2,2.1c0,1.4-0.1,2.8-0.3,4.1
	c-0.2,1.4-0.6,2.7-1,3.9c-0.5,1.1-1.1,2.2-1.8,3.3c-0.1,0.1-0.2,0.2-0.2,0.2c0,0.1,0,0.1,0.1,0.1c0.2,0,0.5-0.3,1.1-0.8
	c0.6-0.6,1.2-1.4,1.7-2.4c0.5-1,0.8-2,1-3.2c0.1,0,0.2,0,0.3,0.1c0.3,0.1,0.6,0.1,0.9,0.1c0.3,0,0.6,0,0.9-0.1
	c0.6-0.1,1.3-0.1,1.9-0.2c0.4-0.1,0.7-0.1,0.7-0.2c0,2.7-0.1,4.3-0.2,4.9c-0.1,0.3-0.2,0.4-0.3,0.4c-0.1,0-0.7-0.1-1.7-0.4
	c-0.2,0-0.3-0.1-0.4-0.1c-0.1,0-0.1,0-0.1,0.1c0,0.1,0.1,0.2,0.4,0.4c0.6,0.6,1.3,1.2,1.9,1.9c0.2,0.2,0.3,0.3,0.5,0.3
	c0.2,0,0.5-0.3,0.8-0.9c0.2-0.5,0.4-1.3,0.4-2.3c0-1.1,0-2.1,0-3.1c0-1.2,0-3.1,0-5.6c0-1.2,0.1-2.1,0.3-2.5
	c0.1-0.2,0.2-0.4,0.2-0.5c0-0.2-0.2-0.4-0.6-0.6c-0.6-0.3-0.9-0.5-1.1-0.5c0,0-0.2,0-0.5,0.1c-0.4,0.2-0.9,0.3-1.6,0.5
	c-0.7,0.2-1.4,0.3-2,0.4c-0.1-0.1-0.2-0.1-0.4-0.2c-0.4-0.2-0.8-0.2-1-0.2C91.5,31.8,91.4,31.9,91.4,32.1z M92.5,39.7
	c0.2-0.9,0.3-1.9,0.4-3c0.1,0,0.1,0,0.2,0.1c0.3,0.1,0.6,0.1,0.9,0.1c0.3,0,0.5,0,0.8-0.1c0.6-0.1,1.1-0.1,1.7-0.2
	c0.3,0,0.5-0.1,0.6-0.2c0,1,0,1.9,0,2.7c0,0.2,0,0.4,0,0.6c0-0.1-0.2-0.3-0.5-0.5c-0.3-0.1-0.5-0.2-0.6-0.2c0,0-0.2,0-0.6,0.1
	c-0.3,0.1-1.2,0.2-2.5,0.5C92.7,39.7,92.6,39.7,92.5,39.7C92.5,39.7,92.5,39.7,92.5,39.7z M92.9,35c0-0.9,0-1.5,0.1-1.8
	c0-0.1,0-0.1,0.1-0.2c0,0,0.1,0,0.1-0.1c0.4-0.1,1.1-0.2,2.1-0.4c0.7-0.1,1-0.1,1.1-0.1c0.2,0,0.3,0,0.4,0.1
	c0.1,0.1,0.1,0.4,0.1,0.8c0,1.1,0,2,0.1,2.9c-0.1-0.1-0.2-0.2-0.5-0.4c-0.3-0.1-0.5-0.2-0.6-0.2c0,0-0.2,0-0.5,0.1
	c-0.3,0.1-1,0.2-2.2,0.5c-0.1,0-0.2,0.1-0.3,0.1C92.9,35.9,92.9,35.5,92.9,35z"/>
<path class="st0" d="M121.3,30.5c0.1,0,0.3,0.1,0.6,0.2c0.5,0.4,0.8,0.8,0.8,1c0,0.1-0.1,0.2-0.2,0.4c0,0.1-0.1,0.1-0.1,0.2
	c0.4,0.2,0.8,0.5,1.3,1c1.6,1.7,2.9,2.8,3.7,3.4c0.8,0.6,2.1,1.2,3.9,1.9c0.2,0.1,0.4,0.1,0.4,0.2c0,0.1-0.1,0.2-0.4,0.2
	c-1.3,0.3-2.2,0.4-2.7,0.4c-0.3,0-0.6-0.1-1-0.4c-0.4-0.3-1.4-1.5-3.1-3.8c-0.5-0.7-1-1.3-1.5-1.8c-0.3-0.4-0.6-0.6-0.9-0.8
	c0,0.1-0.1,0.1-0.1,0.2c-0.5,0.8-1.2,1.8-2.2,3c-1.1,1.4-2.3,2.5-3.6,3.3c-1.3,0.9-2.2,1.3-2.7,1.3c-0.1,0-0.2,0-0.2-0.1
	c0,0,0.1-0.1,0.3-0.2c1.2-0.7,2.6-1.9,4.1-3.6c1.2-1.3,2.2-2.5,2.9-3.9c0.3-0.5,0.5-1.2,0.5-1.9C121,30.6,121.1,30.5,121.3,30.5z
	 M123.6,37c0.1,0,0.3,0.1,0.6,0.2c0.4,0.2,0.7,0.4,0.7,0.6c0,0.2-0.2,0.2-0.6,0.2c-0.7,0-1.5,0.1-2.3,0.2c0,0,0,0,0,0
	c0.1,0,0.2,0.1,0.2,0.1c0.3,0.1,0.4,0.3,0.4,0.4c0,0.1,0,0.2-0.1,0.4c-0.1,0.3-0.1,0.5-0.1,0.7v0.6c0.5-0.1,0.9-0.1,1.3-0.2
	c0.6-0.1,1-0.2,1.1-0.2c0.1,0,0.3,0.1,0.7,0.2c0.5,0.3,0.7,0.5,0.7,0.7c0,0.2-0.2,0.2-0.6,0.2c-1,0-2.1,0.1-3.3,0.2l-0.1,4.5
	c0.3,0,0.5,0,0.8-0.1c1.4-0.1,2.6-0.2,3.3-0.4c0.3-0.1,0.5-0.1,0.6-0.1c0.1,0,0.4,0.1,1,0.3c0.5,0.3,0.7,0.5,0.7,0.7
	c0,0.2-0.4,0.3-1.1,0.3h-2.6c-1,0-2.3,0.1-3.9,0.2c-1.1,0.1-2.3,0.2-3.7,0.5c-0.3,0.1-0.6,0.1-0.7,0.1c-0.2,0-0.6-0.1-1-0.3
	c-0.5-0.2-0.7-0.4-0.7-0.5c0-0.2,0.2-0.2,0.5-0.3c1.4,0,2.5-0.1,3.2-0.2c0.8-0.1,1.6-0.2,2.4-0.2l-0.1-4.5c-0.7,0.1-1.5,0.2-2.4,0.3
	c-0.3,0-0.4,0.1-0.5,0.1c-0.3,0-0.6-0.1-0.9-0.2c-0.4-0.1-0.5-0.3-0.5-0.4c0-0.1,0.1-0.1,0.4-0.2c1.4-0.2,2.7-0.3,3.9-0.4l0-1.2
	c0-0.2-0.1-0.5-0.2-0.7c-0.1-0.1-0.1-0.2-0.1-0.2c-0.2,0-0.5,0.1-0.7,0.1c-0.2,0.1-0.3,0.1-0.3,0.1c-0.3,0-0.5-0.1-0.8-0.2
	c-0.3-0.1-0.5-0.2-0.5-0.4c0-0.1,0.1-0.1,0.3-0.1c1.7-0.3,3-0.5,4.1-0.7C123.3,37.1,123.6,37,123.6,37z M117.7,42.9
	c0.2,0,0.4,0,0.6,0.1c0.6,0.2,1,0.4,1.2,0.6c0.2,0.3,0.4,0.6,0.4,1c0,0.5-0.2,0.7-0.6,0.7c-0.2,0-0.3-0.1-0.4-0.2
	c-0.3-0.3-0.8-0.9-1.3-1.9c-0.1-0.1-0.1-0.2-0.1-0.2C117.5,43,117.6,42.9,117.7,42.9z M125,41.9c0.2,0,0.5,0.2,0.9,0.5
	c0.4,0.3,0.6,0.6,0.6,0.8c0,0.2-0.1,0.3-0.4,0.4c-0.4,0.2-0.9,0.4-1.4,0.7c-0.9,0.6-1.5,0.8-1.7,0.8c-0.1,0-0.1,0-0.1-0.1
	c0-0.1,0-0.1,0.1-0.2c0.4-0.4,0.7-0.8,1-1.2c0.2-0.3,0.5-0.8,0.7-1.5C124.9,42,124.9,41.9,125,41.9z"/>
<path class="st0" d="M147.8,35.9c0-0.1,0-0.1,0-0.2c0.4,0,1-0.1,1.8-0.2c0.5-0.1,0.9-0.1,1.2-0.1c0.2,0,0.2,0.1,0.2,0.2
	c0,0.2,0,0.4,0,0.6c0,0.2-0.1,0.5-0.1,0.7c-0.1,0-0.3,0.1-0.5,0.1c-0.8,0.2-1.6,0.3-2.5,0.4C147.8,37,147.8,36.5,147.8,35.9z
	 M151.5,32.1c-0.5,0.1-1.1,0.3-1.9,0.4c-1.1,0.2-2.1,0.3-2.9,0.4c-0.4,0-0.6,0.1-0.6,0.2c0,0.1,0.1,0.2,0.3,0.4
	c0.2,0.1,0.5,0.1,1,0.1c0.5,0,1.5-0.1,3.1-0.4c1.1-0.2,1.7-0.3,2.1-0.4c0.2-0.1,0.4-0.2,0.4-0.3c0-0.1-0.1-0.2-0.3-0.3
	c-0.3-0.2-0.6-0.2-0.8-0.2C151.7,32,151.6,32.1,151.5,32.1z M146.2,35.1c0,0,0,0,0.1,0.1c0.2,0.2,0.3,0.3,0.3,0.5
	c0.1,0.2,0.1,0.5,0.2,0.9l0.2,0.9c0,0.2,0.1,0.5,0.2,0.7c0.1,0.1,0.2,0.2,0.2,0.2c0.1,0,0.2-0.1,0.2-0.2c0.1-0.1,0.1-0.2,0.1-0.3
	c0,0,0.1,0,0.2,0c0.2,0,0.5,0,0.8-0.1l1.9-0.2c0.4-0.1,0.9-0.1,1.4-0.1c0.1,0,0.2-0.1,0.2-0.2c0-0.1-0.1-0.2-0.3-0.4
	c-0.1,0-0.1-0.1-0.2-0.1l0.3-0.8c0.1-0.3,0.3-0.5,0.4-0.7c0.1-0.1,0.2-0.2,0.2-0.3c0-0.2-0.1-0.3-0.4-0.5c-0.5-0.2-0.9-0.3-1.1-0.3
	c-0.1,0-0.3,0-0.5,0.1c-0.5,0.2-1.1,0.4-1.7,0.5c-0.4,0.1-1,0.2-1.6,0.2c-0.1-0.1-0.2-0.1-0.4-0.2c-0.2-0.1-0.4-0.1-0.7-0.1
	C146.3,34.9,146.2,34.9,146.2,35.1z M144.7,39.4c0,0,0,0.1,0.1,0.2c0.2,0.3,0.4,0.7,0.4,1.3c0,1.2,0,2-0.1,2.5
	c-0.1,0.5-0.2,0.9-0.3,1.2c-0.1,0.1-0.1,0.2-0.1,0.3c0,0.4,0.1,0.8,0.3,1.1c0.2,0.3,0.3,0.4,0.5,0.4c0.2,0,0.3-0.1,0.3-0.4
	c0.1-0.5,0.2-2.5,0.3-6c0.1,0,0.1,0,0.2,0c0.1,0,0.3,0,0.5-0.1c0.1,0,0.1,0,0.2,0c0,0.1,0.1,0.1,0.1,0.2c0.1,0.2,0.3,0.6,0.6,1.2
	c0.2,0.5,0.3,0.8,0.5,0.9c0,0,0.1,0.1,0.1,0.1c-0.4,0.1-0.7,0.1-1.1,0.1c-0.4,0-0.6,0.1-0.6,0.2c0,0.1,0.1,0.2,0.4,0.2
	c0.1,0.1,0.3,0.1,0.6,0.1c0.2,0,0.6,0,1.1-0.1c0,0,0,0,0,0c0.1,0.3,0.1,0.8,0.1,1.6c0,0.2,0,0.4,0,0.5c0,0.1,0,0.2,0,0.2
	c0,0.1,0,0.3,0.1,0.5c0.1,0.2,0.2,0.4,0.4,0.4c0.1,0,0.2-0.1,0.3-0.3c0.1-0.2,0.2-0.5,0.2-0.8v-1.4c0-0.2,0-0.3,0-0.5
	c0-0.1,0-0.2,0-0.2c0-0.1,0-0.1-0.1-0.2c0.4,0,0.7-0.1,0.8-0.1c0.3,0,0.6-0.1,0.9-0.1c0.4-0.1,0.6-0.2,0.6-0.3
	c0-0.1-0.2-0.2-0.5-0.3c-0.4-0.1-0.6-0.1-0.7-0.1c0,0-0.2,0-0.5,0.1c-0.1,0-0.3,0.1-0.4,0.1c0.4-0.4,0.8-0.9,1.2-1.3
	c0.2-0.3,0.4-0.5,0.5-0.6c0.1-0.1,0.1-0.1,0.1-0.2c0-0.1-0.2-0.3-0.5-0.5c0,0-0.1,0-0.1-0.1c0.3,0,0.6,0,0.8,0c0.3,0,0.5,0,0.7,0.1
	c0.1,0.2,0.1,0.6,0.1,1.1c0,1.9-0.1,3.2-0.2,4.1c-0.1,0.4-0.2,0.6-0.3,0.6c-0.2,0-0.6-0.1-1.2-0.3c-0.2-0.1-0.3-0.2-0.4-0.2
	c-0.1,0-0.1,0-0.1,0.1c0,0.1,0.1,0.2,0.2,0.3c0.3,0.4,0.6,0.9,1,1.5c0.1,0.2,0.3,0.3,0.5,0.3c0.2,0,0.5-0.2,0.9-0.7
	c0.4-0.5,0.6-1.4,0.6-2.5l0.1-2.3c0-0.7,0.1-1.2,0.2-1.6c0.1-0.2,0.1-0.3,0.1-0.4c0-0.2-0.2-0.4-0.5-0.6c-0.6-0.4-0.9-0.6-1-0.6
	c0,0-0.1,0-0.3,0.1c-0.2,0.1-0.4,0.1-0.7,0.2c-3.7,0.5-5.6,0.7-5.8,0.7c0,0-0.1,0-0.1,0c0-0.1-0.1-0.1-0.2-0.1
	c-0.2-0.1-0.5-0.2-0.8-0.2C144.8,39.2,144.7,39.3,144.7,39.4z M148.6,42.3c0.1-0.2,0.1-0.3,0.1-0.5c0-0.2,0-0.5-0.1-0.7
	c-0.1-0.2-0.3-0.5-0.6-0.8c-0.2-0.2-0.4-0.3-0.6-0.5c0.7-0.1,1.4-0.2,2.3-0.3c0.2,0,0.5,0,0.7-0.1c0,0.2-0.1,0.6-0.2,1
	c-0.1,0.5-0.3,1-0.6,1.6c-0.3,0.1-0.6,0.1-1,0.1C148.6,42.4,148.6,42.4,148.6,42.3z M154.1,37.3c0,0,0,0.1,0.1,0.1
	c0.2,0.2,0.4,0.5,0.4,0.7c0.1,0.2,0.2,0.7,0.2,1.3l0.2,1.2c0,0.2,0.1,0.5,0.2,0.7c0.1,0.2,0.2,0.2,0.3,0.2c0.1,0,0.2-0.1,0.2-0.2
	c0-0.1,0-0.1,0.1-0.2c0.1,0,0.2,0,0.4,0c0.2,0,0.5,0,0.9-0.1v3c-0.8,0.2-1.5,0.3-2,0.4c-0.3,0.1-0.5,0.1-0.8,0.1
	c-0.1,0-0.1,0-0.1,0.1c0,0.2,0.1,0.4,0.4,0.6c0.4,0.3,0.7,0.5,0.9,0.5c0.1,0,0.2,0,0.3-0.1c0.8-0.4,1.5-0.7,2.1-0.9
	c1-0.4,1.7-0.7,2.3-0.9c0.1,0.2,0.2,0.4,0.3,0.6c0.4,0.7,0.6,1.2,0.9,1.4c0.2,0.1,0.3,0.2,0.3,0.2c0.2,0,0.3-0.1,0.4-0.2
	c0.1-0.2,0.1-0.4,0.1-0.6c0-0.4-0.1-0.7-0.2-1.1c-0.2-0.4-0.5-0.8-1.1-1.2c-0.4-0.3-0.8-0.5-1.3-0.8c-0.2-0.1-0.4-0.1-0.5-0.1
	c-0.1,0-0.1,0-0.1,0.1c0,0.1,0.1,0.3,0.3,0.5c0.1,0.2,0.3,0.5,0.6,0.9c-0.1,0-0.1,0-0.2,0c-0.6,0.2-1.2,0.3-1.7,0.4l0-2.9l1-0.1
	c0.5-0.1,1-0.1,1.5-0.1c0.1,0,0.2-0.1,0.2-0.1c0-0.1-0.1-0.3-0.4-0.4c0,0-0.1,0-0.1,0c0.1-0.1,0.1-0.2,0.2-0.3l0.4-0.8
	c0.2-0.5,0.4-0.9,0.8-1.3c0.1-0.1,0.2-0.2,0.2-0.3c0-0.2-0.2-0.4-0.7-0.7c-0.4-0.2-0.7-0.4-0.8-0.4c0,0-0.1,0-0.3,0
	c-0.2,0.1-0.4,0.2-0.7,0.2c-0.4,0.1-0.8,0.1-1.2,0.2l0-0.7c0.1-1.5,0.2-2.4,0.3-2.6c0.1-0.3,0.2-0.5,0.2-0.5c0-0.3-0.2-0.5-0.6-0.7
	c-0.5-0.2-0.9-0.4-1.3-0.4c-0.3,0-0.4,0.1-0.4,0.4c0,0,0.1,0.2,0.2,0.4c0.1,0.2,0.2,0.5,0.2,0.9c0.1,0.8,0.1,1.5,0.1,2.2V37
	c-0.4,0.1-0.7,0.1-1,0.2c-0.3,0.1-0.7,0.1-1,0.1c0,0-0.1,0-0.1,0c-0.2-0.1-0.4-0.1-0.7-0.1C154.1,37.1,154.1,37.2,154.1,37.3z
	 M155.7,38.3c0-0.1,0-0.2,0-0.3c0.1,0,0.2,0,0.4-0.1c0.3-0.1,0.7-0.2,1.1-0.2v2.8c-0.4,0-0.8,0.1-1.2,0.1
	C155.9,40.1,155.8,39.3,155.7,38.3z M159.5,37.3c0.4,0,0.6,0.1,0.6,0.3c0,0.1-0.1,0.4-0.2,0.9c-0.1,0.6-0.2,1.1-0.3,1.3
	c0,0,0,0.1,0,0.1c-0.2,0-0.5,0.1-0.9,0.1c-0.2,0-0.3,0.1-0.5,0.1l0-2.8C158.8,37.4,159.3,37.3,159.5,37.3z"/>
</svg>
