<?xml version="1.0" encoding="UTF-8"?>
<svg width="345px" height="65px" viewBox="0 0 345 65" version="1.1" xmlns="http://www.w3.org/2000/svg" xmlns:xlink="http://www.w3.org/1999/xlink">
    <title>Group 77</title>
    <defs>
        <polygon id="path-1" points="0 0 45.7428266 0 45.7428266 50.596138 0 50.596138"></polygon>
        <polygon id="path-3" points="0 0 11.2013645 0 11.2013645 11.2167347 0 11.2167347"></polygon>
        <polygon id="path-5" points="0 0 106.793127 0 106.793127 29.6292678 0 29.6292678"></polygon>
        <polygon id="path-7" points="0 0 211.57988 0 211.57988 1.09700674 0 1.09700674"></polygon>
    </defs>
    <g id="Page-1" stroke="none" stroke-width="1" fill="none" fill-rule="evenodd">
        <g id="Group-77" transform="translate(0.000000, 1.000000)">
            <path d="M106.21548,10.9350729 C106.21548,10.9350729 99.3917251,14.9556026 87.0839901,15.9418116 C74.7959737,16.9236327 73.6884419,24.6926344 74.837602,28.3412788 C76.1346521,32.4660241 85.6762963,46.6239931 116.72772,45.2790628 C106.144273,43.191459 85.3038326,37.2018022 82.9244467,28.7888575 C80.2492808,19.3502116 87.5101324,19.744037 94.0578255,17.4842031 C101.625412,14.8722301 106.21548,10.9350729 106.21548,10.9350729" id="Fill-1" fill="#C4D600"></path>
            <path d="M82.5433287,40.373139 C82.5433287,40.373139 85.1779618,41.7465914 87.3240101,42.2369535 C89.2071429,42.6658831 91.2710301,42.9138066 91.2710301,42.9138066 C91.2710301,42.9138066 84.9249055,43.0673876 81.9123313,45.7023977 C78.2599959,48.8957844 77.0670165,52.5433318 77.0670165,52.5433318 C77.0670165,52.5433318 75.8444591,47.2776994 77.7352602,44.2148566 C79.9601832,40.5892493 82.5433287,40.373139 82.5433287,40.373139" id="Fill-3" fill="#C4D600"></path>
            <path d="M72.1335154,13.6079298 C72.9901819,15.8633756 75.5196488,16.9889046 77.7664814,16.1255603 C80.0187915,15.263313 81.1427555,12.7369064 80.2828025,10.4847516 C79.4173721,8.23259677 76.8944781,7.10267983 74.64655,7.96712114 C72.3997174,8.83046544 71.268085,11.354678 72.1335154,13.6079298" id="Fill-5" fill="#C4D600"></path>
            <g id="Group-9" transform="translate(21.722632, 12.403862)">
                <mask id="mask-2" fill="white">
                    <use xlink:href="#path-1"></use>
                </mask>
                <g id="Clip-8"></g>
                <path d="M0,4.65360546 C0,4.65360546 10.0543295,6.14224361 25.1697838,1.37794334 C40.2666148,-3.38087189 45.3233576,5.32607059 45.71554,10.2187206 C46.157019,15.7553137 41.62063,37.2072804 4.02151272,50.5962477 C15.6149938,43.0060581 37.5311974,25.8159625 36.3097355,14.6572099 C34.9447655,2.135975 26.4964119,6.1082364 17.6164386,6.57994929 C7.35506303,7.12625865 0,4.65360546 0,4.65360546" id="Fill-7" fill="#624095" mask="url(#mask-2)"></path>
            </g>
            <path d="M64.0586114,40.6624197 C64.0586114,40.6624197 61.5850141,43.5672935 59.2680707,45.1875725 C57.2370479,46.6070992 54.8992903,47.8971791 54.8992903,47.8971791 C54.8992903,47.8971791 62.5249373,45.0175364 67.3779205,46.6937627 C73.2617518,48.7341953 76.4386483,52.5002194 76.4386483,52.5002194 C76.4386483,52.5002194 75.3541216,45.6439273 71.6338663,42.9090895 C67.2387943,39.6729196 64.0586114,40.6624197 64.0586114,40.6624197" id="Fill-10" fill="#624095"></path>
            <g id="Group-14" transform="translate(57.743834, 0.000000)">
                <mask id="mask-4" fill="white">
                    <use xlink:href="#path-3"></use>
                </mask>
                <g id="Clip-13"></g>
                <path d="M11.2000777,5.50357311 C11.2658066,8.59932612 8.80535504,11.1564488 5.70842874,11.2156872 C2.61478888,11.2749256 0.0579349804,8.81433945 0.000969940574,5.71748942 C-0.0559950993,2.6206394 2.40336095,0.0635166902 5.49480984,0.000987306065 C8.57968585,-0.0571540511 11.1420172,2.40452907 11.2000777,5.50357311" id="Fill-12" fill="#624095" mask="url(#mask-4)"></path>
            </g>
            <g id="Group-17" transform="translate(0.000000, 11.660304)">
                <mask id="mask-6" fill="white">
                    <use xlink:href="#path-5"></use>
                </mask>
                <g id="Clip-16"></g>
                <path d="M106.793127,0 C106.793127,0 91.6218033,22.5654286 24.3910059,24.7276289 C-9.37611691,25.8103745 21.3433763,6.61165961 21.3433763,6.61165961 C21.3433763,6.61165961 -17.2526292,22.0300893 9.35880831,28.3642062 C33.2501651,34.0510892 99.3986267,19.854725 106.793127,0" id="Fill-15" fill="#E4002B" mask="url(#mask-6)"></path>
            </g>
            <g id="Group-20" transform="translate(133.420120, 29.490942)">
                <mask id="mask-8" fill="white">
                    <use xlink:href="#path-7"></use>
                </mask>
                <g id="Clip-19"></g>
                <line x1="0" y1="0.548503369" x2="211.580208" y2="0.548503369" id="Stroke-18" stroke="#BA501F" stroke-width="1.02756168" mask="url(#mask-8)"></line>
            </g>
            <path d="M138.955808,20.8648488 C138.073945,17.9358408 137.273148,14.9454004 136.771417,11.8946247 L138.655646,11.8946247 C139.177095,14.9859897 139.878203,17.9961761 141.019695,20.8648488 L138.955808,20.8648488 Z M134.7875,10.2710547 L134.7875,8.88553518 L141.861025,8.88553518 C141.461174,7.98160163 141.040509,7.03817583 140.719533,6.07719793 L142.743983,6.07719793 C143.044145,6.95809434 143.605031,8.16260774 144.085948,8.88553518 L150.417831,8.88553518 L150.417831,10.2710547 L134.7875,10.2710547 Z M133.946171,23.6336938 L133.946171,22.209779 L143.504247,22.209779 C145.127751,18.9790942 145.989895,15.4072402 146.731536,11.8946247 L148.614668,11.8946247 C147.853309,15.4280834 147.011979,18.9790942 145.549511,22.209779 L151.439915,22.209779 L151.439915,23.6336938 L133.946171,23.6336938 Z" id="Fill-21" fill="#707372"></path>
            <path d="M185.46831,19.2600376 C185.46831,19.0395393 185.267837,18.838787 185.067364,18.838787 L184.04528,18.838787 C183.844807,18.838787 183.665148,19.0592854 183.665148,19.2402915 L183.684866,20.143128 C183.684866,20.303291 183.864525,20.464551 183.985028,20.464551 L185.127616,20.464551 C185.30837,20.464551 185.46831,20.2846419 185.46831,20.0827927 L185.46831,19.2600376 Z M185.127616,10.0298229 L183.584082,10.0298229 C183.443861,10.3106566 183.103166,10.7911456 182.882974,11.0324871 L185.949227,11.0324871 C185.748754,10.8119887 185.347807,10.3304028 185.127616,10.0298229 L185.127616,10.0298229 Z M186.590084,12.5375803 C186.590084,12.3774173 186.430143,12.2161573 186.249389,12.2161573 L182.582812,12.2161573 C182.441495,12.2161573 182.261836,12.3368281 182.261836,12.4980881 L182.261836,13.0191663 C182.261836,13.2001724 182.402058,13.3603354 182.542279,13.3603354 L186.249389,13.3603354 C186.449862,13.3603354 186.590084,13.2001724 186.590084,12.97748 L186.590084,12.5375803 Z M186.730305,21.3070522 C186.470676,21.608729 186.06973,21.7283028 185.809005,21.7283028 L183.243387,21.7283028 C182.923507,21.7283028 182.622249,21.5681398 182.382339,21.3267983 C182.161052,21.0854568 182.021926,20.7453847 182.021926,20.3647234 L182.021926,19.000047 C182.021926,18.5974455 182.181866,18.2771196 182.382339,18.0368751 C182.641968,17.7549444 183.003477,17.6145275 183.303639,17.6145275 L185.72794,17.6145275 C186.06973,17.6145275 186.409329,17.7549444 186.671149,17.9962858 C186.91106,18.2156872 187.071,18.517364 187.071,18.8585331 L187.071,20.4250588 C187.071,20.8046231 186.930778,21.1063 186.730305,21.3070522 L186.730305,21.3070522 Z M189.155701,23.2136499 C188.874163,23.4933866 188.513749,23.6546466 188.113898,23.6546466 L186.570365,23.6546466 L186.009478,22.250478 L187.432509,22.250478 C187.631886,22.250478 187.853174,22.089218 187.853174,21.7897352 L187.853174,17.0923523 C187.853174,16.8916001 187.652701,16.712788 187.471946,16.712788 L181.601261,16.712788 C181.440225,16.712788 181.239752,16.8521078 181.239752,17.051763 L181.239752,23.6546466 L179.516559,23.6546466 L179.516559,17.1120984 C179.516559,16.5910202 179.697314,16.1500235 179.997476,15.8483467 C180.277919,15.5466698 180.678865,15.3876038 181.158686,15.3876038 L187.91233,15.3876038 C188.393246,15.3876038 188.815007,15.5269237 189.09545,15.8088544 C189.395612,16.1094343 189.555552,16.551528 189.555552,17.1526877 L189.555552,22.0694719 C189.555552,22.5510578 189.395612,22.9525623 189.155701,23.2136499 L189.155701,23.2136499 Z M188.353809,12.7394296 L188.353809,13.298903 C188.353809,13.6609152 188.253024,13.9625921 188.053647,14.1830904 C187.872892,14.4024918 187.571635,14.5440056 187.191503,14.5440056 L181.520195,14.5440056 C181.239752,14.5440056 180.979027,14.4024918 180.799368,14.2039336 C180.578081,13.9823382 180.458673,13.6817583 180.458673,13.4404169 L180.458673,12.7394296 L178.854888,12.7394296 C179.617344,12.1152327 180.959308,10.8317348 181.560728,10.0298229 L179.095894,10.0298229 L179.095894,8.76607115 L182.421776,8.76607115 C182.582812,8.54447579 182.703315,8.28338818 182.803004,8.0420467 C182.021926,8.08263595 180.538644,8.1232252 179.596529,8.1232252 L179.596529,6.79804106 C182.222399,6.87812255 186.650335,6.5764457 189.075731,6.15738912 L189.075731,7.5209685 C187.973677,7.62189312 185.789287,7.84129447 184.687232,7.94221909 C184.606166,8.22195581 184.465945,8.56422191 184.346537,8.76607115 L189.876528,8.76607115 L189.876528,10.0298229 L187.211222,10.0298229 C187.83236,10.8920702 189.214857,12.0965836 190.196409,12.7394296 L188.353809,12.7394296 Z M177.653145,21.768892 C177.392421,18.9792039 177.111977,14.7052656 177.273013,11.5952515 L178.714667,11.5952515 C178.574445,14.6449303 178.794637,19.1997022 179.216397,21.768892 L177.653145,21.768892 Z M176.651875,10.6715719 L176.651875,23.6546466 L174.96812,23.6546466 L174.96812,10.6715719 L172.602975,10.6715719 L172.602975,9.36723084 L174.96812,9.36723084 L174.96812,6.136546 L176.651875,6.136546 L176.651875,9.36723084 L178.634697,9.36723084 L178.634697,10.6715719 L176.651875,10.6715719 Z M174.006287,21.768892 L172.443035,21.768892 C172.903137,18.8991224 173.083892,14.443081 172.963389,11.5952515 L174.426952,11.5952515 C174.446671,14.3629995 174.446671,19.1404639 174.006287,21.768892 L174.006287,21.768892 Z" id="Fill-23" fill="#707372"></path>
            <path d="M226.42957,23.2141984 C225.467737,21.2461683 224.505904,19.2605861 223.945018,17.1532362 L225.888402,17.1532362 C226.42957,19.1794076 227.472468,21.3076007 228.674212,23.2141984 L226.42957,23.2141984 Z M225.788713,8.20275819 C225.788713,7.98116283 225.627678,7.78260461 225.327516,7.78260461 L218.694375,7.78260461 C218.434746,7.78260461 218.213459,7.98116283 218.213459,8.24334744 L218.213459,11.3336154 C218.213459,11.6352923 218.394213,11.7746121 218.614405,11.7746121 L225.347234,11.7746121 C225.627678,11.7746121 225.788713,11.6352923 225.788713,11.3336154 L225.788713,8.20275819 Z M217.773075,23.2141984 L215.427649,23.2141984 C216.730177,21.3470929 217.692009,19.3011754 218.234273,17.1532362 L220.137124,17.1532362 C219.636489,19.3011754 218.734908,21.2670114 217.773075,23.2141984 L217.773075,23.2141984 Z M223.002904,16.3502272 L223.002904,23.6749412 L221.079238,23.6749412 L221.079238,16.3502272 L214.746259,16.3502272 L214.746259,14.9252155 L221.079238,14.9252155 L221.079238,13.1798778 L218.012985,13.1798778 C217.51235,13.1798778 217.091685,12.9396333 216.790428,12.5973672 C216.530799,12.2759442 216.369763,11.8744397 216.369763,11.43454 L216.369763,8.06124432 C216.369763,7.50177088 216.630488,7.03883404 217.031434,6.73715719 C217.371033,6.49800972 217.812512,6.35759285 218.27371,6.35759285 L225.969468,6.35759285 C226.50954,6.35759285 226.930205,6.55724808 227.231463,6.89841718 C227.531624,7.24068328 227.691565,7.70142611 227.691565,8.24334744 L227.691565,11.3544585 C227.691565,11.915029 227.472468,12.3571227 227.130678,12.6587996 C226.770265,12.9977746 226.26963,13.1798778 225.748181,13.1798778 L223.002904,13.1798778 L223.002904,14.9252155 L228.69393,14.9252155 L228.69393,16.3502272 L223.002904,16.3502272 Z M213.443732,11.8952829 L214.346409,11.8952829 L214.346409,23.6749412 L212.582683,23.6749412 L212.582683,12.6379564 L210.918647,12.6379564 C212.38221,10.6710234 213.264073,8.34317505 214.025433,6.11625137 L215.888847,6.11625137 C215.288523,8.10293058 214.446098,10.0490205 213.443732,11.8952829 L213.443732,11.8952829 Z" id="Fill-25" fill="#707372"></path>
            <path d="M265.086484,13.7418743 C265.086484,13.521376 264.886011,13.3195267 264.665819,13.3195267 L263.844208,13.3195267 C263.643735,13.3195267 263.462981,13.5005328 263.462981,13.7210312 L263.462981,15.6682181 C263.462981,15.968798 263.643735,16.1092149 263.844208,16.1092149 L264.665819,16.1092149 C264.90573,16.1092149 265.086484,15.9896411 265.086484,15.7285535 L265.086484,13.7418743 Z M266.32876,16.951716 C266.068036,17.2128036 265.707622,17.3938097 265.266143,17.3938097 L263.022597,17.3938097 C262.701621,17.3938097 262.401459,17.2128036 262.181267,16.9319699 C261.979699,16.6719793 261.840573,16.3110641 261.840573,15.9282087 L261.840573,13.4401975 C261.840573,13.0189469 262.020231,12.6591287 262.300675,12.3969441 C262.561399,12.1764457 262.921813,12.0349318 263.343573,12.0349318 L265.246425,12.0349318 C265.627652,12.0349318 265.948628,12.1358564 266.188539,12.3168626 C266.529233,12.5779502 266.709988,12.9783576 266.709988,13.5005328 L266.709988,15.9896411 C266.709988,16.3505563 266.569766,16.6917254 266.32876,16.951716 L266.32876,16.951716 Z M258.613284,11.0728569 L263.924178,11.0728569 L263.924178,9.78826203 L258.613284,9.78826203 L258.613284,11.0728569 Z M259.354925,13.7418743 C259.354925,13.5400251 259.134733,13.3403698 258.93426,13.3403698 L258.09293,13.3403698 C257.871643,13.3403698 257.672265,13.521376 257.672265,13.7210312 L257.672265,15.7077104 C257.672265,16.0082902 257.812487,16.130058 258.052397,16.130058 L258.93426,16.130058 C259.214703,16.130058 259.354925,15.9896411 259.354925,15.7482996 L259.354925,13.7418743 Z M260.538045,17.0120514 C260.27732,17.273139 259.936626,17.433302 259.535679,17.433302 L257.291038,17.433302 C257.010594,17.433302 256.6699,17.273139 256.410271,17.0120514 C256.188983,16.7926501 256.027947,16.4909732 256.027947,16.1498041 L256.027947,13.3798621 C256.027947,13.038693 256.188983,12.718367 256.429989,12.4781226 C256.6699,12.2367811 256.990876,12.0755211 257.331571,12.0755211 L259.576212,12.0755211 C259.976063,12.0755211 260.316758,12.2159379 260.538045,12.4375333 C260.797674,12.6986209 260.938991,13.038693 260.938991,13.4401975 L260.938991,16.0697226 C260.938991,16.451481 260.777955,16.7729039 260.538045,17.0120514 L260.538045,17.0120514 Z M265.306676,11.2132738 C264.485065,10.1491772 263.723705,8.92601473 263.162819,7.94199969 C263.062034,7.76209058 262.841843,7.62167372 262.621651,7.62167372 L260.016596,7.62167372 C259.795308,7.62167372 259.555398,7.72259834 259.455709,7.94199969 C258.974793,8.88542548 258.011865,10.2906911 257.291038,11.2132738 L254.98724,11.2132738 C256.208702,9.96926814 257.131097,8.54425639 257.992146,7.11924463 C258.153182,6.85815703 258.373373,6.6574048 258.613284,6.51808494 C258.894823,6.35682495 259.214703,6.29758659 259.555398,6.29758659 L263.1431,6.29758659 C263.544046,6.29758659 263.863927,6.39851121 264.104933,6.5773233 C264.384281,6.77807554 264.585849,7.03916314 264.765508,7.31999687 C265.627652,8.68577026 266.630018,10.0690958 267.691539,11.2132738 L265.306676,11.2132738 Z M265.347209,23.613838 C264.926544,22.9523429 264.424813,21.8695972 264.0644,20.9865068 C263.683172,21.8893434 263.102567,23.0335214 262.701621,23.613838 L260.517231,23.613838 C260.637734,23.452578 260.95871,23.0730136 261.11865,22.8525153 L259.576212,22.8525153 C259.175266,22.2096693 258.875104,21.507585 258.613284,20.8044037 C258.153182,21.7895157 257.652547,22.7318445 256.990876,23.613838 L254.626827,23.613838 C256.268953,22.0286632 257.17163,20.0628271 257.752235,18.0366557 L259.514865,18.0366557 L259.01423,19.7819934 L259.996877,19.7819934 C260.297039,20.7243222 260.797674,21.5876665 261.379375,22.4104216 C262.241519,21.0852374 262.781591,19.6415766 263.081753,18.0366557 L264.826855,18.0366557 C264.765508,18.5577339 264.585849,19.3409967 264.465346,19.7414042 L265.40746,19.7414042 C265.908095,21.1258267 266.689174,22.4104216 267.590755,23.613838 L265.347209,23.613838 Z M254.806486,19.3991381 C254.425258,19.720561 253.924623,19.9224103 253.503958,19.9224103 L252.622095,19.9224103 L252.061209,18.6784046 L253.062479,18.6784046 C253.344018,18.6784046 253.523677,18.6169723 253.624461,18.4973985 C253.764683,18.3569817 253.805215,18.1156402 253.824934,17.7755681 C253.965156,16.0499765 253.344018,14.1642219 252.381089,12.6986209 C252.941976,11.1331923 253.523677,9.32642219 253.704431,8.00233506 C253.743868,7.82023194 253.603647,7.72259834 253.443707,7.72259834 L252.20143,7.72259834 C252.021772,7.72259834 251.800484,7.90141044 251.800484,8.10216267 L251.800484,23.613838 L250.176981,23.613838 L250.176981,7.80267983 C250.176981,7.44066761 250.357735,7.07975239 250.597646,6.83841091 C250.85837,6.59706942 251.179346,6.43800345 251.520041,6.43800345 L254.164533,6.43800345 C254.56548,6.43800345 254.926989,6.59706942 255.14718,6.85815703 C255.427624,7.15983388 255.548127,7.60083059 255.447342,8.1230058 C255.166899,9.58750979 254.56548,11.2132738 254.04403,12.5976963 C255.006959,14.2629525 255.768318,16.130058 255.487875,18.1759756 C255.427624,18.6575615 255.166899,19.0799091 254.806486,19.3991381 L254.806486,19.3991381 Z" id="Fill-27" fill="#707372"></path>
            <path d="M302.982258,23.1338975 C301.51979,21.9502272 300.277514,20.605297 299.075771,19.139696 L301.358754,19.139696 C302.781785,20.6842815 304.425007,22.0489578 306.089044,23.1338975 L302.982258,23.1338975 Z M297.111572,13.7819151 L292.041684,13.7819151 L292.041684,14.4028209 C292.041684,14.6452594 292.261876,14.90525 292.5226,14.90525 L297.111572,14.90525 L297.111572,13.7819151 Z M292.041684,12.477574 L297.111572,12.477574 L297.111572,11.3948284 L292.041684,11.3948284 L292.041684,12.477574 Z M292.041684,10.0893904 L297.111572,10.0893904 L297.111572,9.04613697 L292.041684,9.04613697 L292.041684,10.0893904 Z M291.660456,23.1338975 L288.494515,23.1338975 C290.237426,22.0895471 291.921181,20.7040276 293.36393,19.139696 L295.668823,19.139696 C294.606206,20.5449616 293.063768,21.9688764 291.660456,23.1338975 L291.660456,23.1338975 Z M298.233346,18.6976023 L298.233346,23.5946403 L296.38965,23.5946403 L296.38965,18.6976023 L288.934898,18.6976023 L288.934898,17.3735151 L296.38965,17.3735151 L296.38965,16.2304341 L291.761241,16.2304341 C291.300043,16.2304341 290.858564,16.0088387 290.578121,15.6479235 C290.33821,15.3473437 290.177174,14.9458392 290.177174,14.4642533 L290.177174,9.80965366 L288.353198,9.80965366 C289.797042,8.76530324 291.17954,7.50155148 292.181906,6.07653973 L294.425452,6.07653973 C294.104476,6.5767748 293.644373,7.18012851 293.184271,7.70230371 L296.890285,7.70230371 C296.670093,7.16038239 296.449902,6.61736405 296.289961,6.07653973 L298.093124,6.07653973 C298.273878,6.59761793 298.492975,7.16038239 298.754795,7.70230371 L305.106397,7.70230371 L305.127211,9.04613697 L298.854484,9.04613697 L298.854484,10.0893904 L304.666013,10.0893904 L304.666013,11.3948284 L298.854484,11.3948284 L298.854484,12.477574 L304.666013,12.477574 L304.666013,13.7819151 L298.854484,13.7819151 L298.854484,14.90525 L305.567594,14.90525 L305.567594,16.2304341 L298.233346,16.2304341 L298.233346,17.3735151 L305.647565,17.3735151 L305.647565,18.6976023 L298.233346,18.6976023 Z" id="Fill-29" fill="#707372"></path>
            <path d="M339.014837,15.0263595 L336.850165,15.0263595 L336.850165,15.6472653 C337.531555,15.6066761 338.654423,15.5265946 339.254747,15.4881993 C339.174777,15.3477825 339.073993,15.1667764 339.014837,15.0263595 L339.014837,15.0263595 Z M339.676507,13.2996709 L336.850165,13.2996709 L336.850165,13.9227707 L339.355531,13.9227707 C339.53519,13.9227707 339.676507,13.7812569 339.676507,13.5816016 L339.676507,13.2996709 Z M339.676507,11.9755838 C339.676507,11.7945777 339.435502,11.6552578 339.235028,11.6552578 L336.850165,11.6552578 L336.850165,12.2761636 L339.676507,12.2761636 L339.676507,11.9755838 Z M335.187224,13.2996709 L332.301726,13.2996709 L332.301726,13.5607585 C332.301726,13.7417646 332.48248,13.9227707 332.681858,13.9227707 L335.187224,13.9227707 L335.187224,13.2996709 Z M335.187224,11.6552578 L332.721295,11.6552578 C332.582169,11.6552578 332.301726,11.8351669 332.301726,12.016173 L332.301726,12.2761636 L335.187224,12.2761636 L335.187224,11.6552578 Z M333.322715,21.3473123 C332.701577,20.8448832 331.801091,20.0824636 331.239109,19.3990284 L333.764194,19.3990284 C334.32508,20.0232252 335.32635,20.8854725 336.168776,21.3473123 L333.322715,21.3473123 Z M340.05664,18.9196364 L340.05664,20.1636421 C340.05664,20.5256543 339.955855,20.9249647 339.735663,21.2068955 C339.515472,21.4877292 339.155058,21.6884814 338.633609,21.6884814 L336.950949,21.6884814 L336.470033,20.5048112 L337.891968,20.5048112 C338.152693,20.5048112 338.333447,20.323805 338.333447,20.0429713 L338.333447,18.9196364 L330.017647,18.9196364 L330.017647,17.7754584 L338.333447,17.7754584 L338.333447,17.1523586 L340.05664,17.1523586 L340.05664,17.7754584 L342.000024,17.7754584 L342.000024,18.9196364 L340.05664,18.9196364 Z M340.397334,17.1929478 C340.276831,17.052531 340.096077,16.7925404 339.976669,16.6115342 C337.511836,16.7727942 332.802361,16.9921956 329.996833,17.0722771 L329.996833,15.8688607 C331.320174,15.9094499 333.905511,15.8480176 335.187224,15.7481899 L335.187224,15.0263595 L332.321444,15.0263595 C331.840528,15.0263595 331.439582,14.8848456 331.13942,14.624855 C330.818444,14.3626704 330.638785,13.962263 330.638785,13.4598339 L330.638785,12.0556653 C330.638785,11.6355117 330.818444,11.2537533 331.098887,10.9926657 C331.37933,10.7315781 331.760558,10.5703181 332.200941,10.5703181 L335.187224,10.5703181 L335.187224,9.90882307 L329.996833,9.90882307 L329.996833,8.76574205 L335.187224,8.76574205 L335.187224,7.98138223 L336.850165,7.98138223 L336.850165,8.76574205 L341.940868,8.76574205 L341.940868,9.90882307 L336.850165,9.90882307 L336.850165,10.5703181 L339.696226,10.5703181 C340.177143,10.5703181 340.617526,10.7710704 340.918784,11.1330826 C341.158694,11.4139163 341.318634,11.8143238 341.318634,12.2970067 L341.318634,13.6013478 C341.318634,14.0840307 340.997658,14.5447735 340.658059,14.785018 C341.118161,15.6066761 341.840084,16.6115342 342.40097,17.1929478 L340.397334,17.1929478 Z M342.721946,8.22272371 C342.721946,7.88155462 342.500659,7.62156402 342.16106,7.62156402 L329.87633,7.62156402 C329.555354,7.62156402 329.215754,7.90130074 329.215754,8.24246983 L329.215754,21.7685629 C329.215754,22.108635 329.496198,22.3905657 329.79636,22.3905657 L342.200497,22.3905657 C342.500659,22.3905657 342.721946,22.1294781 342.721946,21.8288983 L342.721946,8.22272371 Z M344.063911,23.0334117 C343.723216,23.412976 343.222581,23.6345714 342.641976,23.6345714 L329.315443,23.6345714 C328.793994,23.6345714 328.293359,23.4338192 327.952664,23.0334117 C327.691939,22.7317348 327.512281,22.2896411 327.512281,21.7279737 L327.512281,8.06146372 C327.512281,7.60072089 327.732472,7.15972418 328.073167,6.85914433 C328.394143,6.5772136 328.793994,6.41705062 329.27491,6.41705062 L342.541192,6.41705062 C343.182048,6.41705062 343.643246,6.59695972 343.964222,6.93922583 C344.304917,7.30014104 344.464857,7.80257013 344.464857,8.42347594 L344.464857,21.9890613 C344.464857,22.3905657 344.304917,22.751481 344.063911,23.0334117 L344.063911,23.0334117 Z" id="Fill-31" fill="#707372"></path>
            <path d="M147.370859,48.7678734 C147.344567,48.862216 147.30513,48.9357154 147.252547,48.9916627 C147.199963,49.0487071 147.126566,49.0914904 147.034546,49.1200125 C146.942525,49.1507287 146.828595,49.1715719 146.693851,49.1847359 C146.558011,49.198997 146.392594,49.2044821 146.194311,49.2044821 C145.989456,49.2044821 145.81637,49.198997 145.675053,49.1847359 C145.532641,49.1715719 145.415424,49.1507287 145.323404,49.1200125 C145.231383,49.0914904 145.161272,49.0487071 145.115262,48.9916627 C145.069252,48.9357154 145.033101,48.862216 145.006809,48.7678734 L142.327262,39.0922739 L142.306447,39.0922739 L139.833946,48.7678734 C139.814227,48.862216 139.781363,48.9357154 139.735352,48.9916627 C139.688247,49.0487071 139.622518,49.0914904 139.53707,49.1200125 C139.451623,49.1507287 139.340979,49.1715719 139.205139,49.1847359 C139.070395,49.198997 138.897309,49.2044821 138.685881,49.2044821 C138.468976,49.2044821 138.287126,49.198997 138.142522,49.1847359 C137.996823,49.1715719 137.878511,49.1507287 137.786491,49.1200125 C137.693375,49.0914904 137.623264,49.0487071 137.573967,48.9916627 C137.524671,48.9357154 137.489615,48.862216 137.468801,48.7678734 L134.08705,36.9322677 C134.046517,36.7797837 134.025703,36.662404 134.022416,36.5757405 C134.01913,36.490174 134.045421,36.4232565 134.101291,36.3771823 C134.158256,36.331108 134.248085,36.3003918 134.37297,36.2872277 C134.498951,36.2751606 134.666559,36.2674816 134.877987,36.2674816 C135.082842,36.2674816 135.243878,36.2729666 135.36219,36.2828397 C135.481597,36.2927127 135.572522,36.3113619 135.634965,36.33769 C135.697407,36.3640182 135.740131,36.4002194 135.763136,36.4473907 C135.786141,36.493465 135.804765,36.5516063 135.81791,36.6251058 L138.696836,47.3626077 L138.7056,47.3626077 L141.436635,36.6448519 C141.456354,36.5713525 141.480454,36.5110171 141.510032,36.4605548 C141.540706,36.4111895 141.587812,36.3738912 141.65354,36.3475631 C141.719269,36.3212349 141.813481,36.3003918 141.936175,36.2872277 C142.057773,36.2751606 142.217713,36.2674816 142.415996,36.2674816 C142.600037,36.2674816 142.746831,36.2751606 142.855284,36.2872277 C142.964832,36.3003918 143.05247,36.3212349 143.118199,36.3475631 C143.183928,36.3738912 143.231034,36.4111895 143.261707,36.4605548 C143.29019,36.5110171 143.315386,36.5713525 143.335105,36.6448519 L146.273186,47.3626077 L146.292905,47.3626077 L149.111579,36.6349788 C149.132393,36.5680614 149.152112,36.5110171 149.17183,36.4605548 C149.191549,36.4111895 149.233177,36.3738912 149.29562,36.3475631 C149.358062,36.3212349 149.446796,36.3003918 149.562917,36.2872277 C149.676847,36.2751606 149.83131,36.2674816 150.021924,36.2674816 C150.220206,36.2674816 150.37686,36.2762576 150.492981,36.2927127 C150.608007,36.3091678 150.691263,36.340981 150.744942,36.3859583 C150.797525,36.4331296 150.821625,36.497853 150.819571,36.5845165 C150.815053,36.6700831 150.797525,36.7907538 150.763565,36.9421407 L147.370859,48.7678734 Z" id="Fill-33" fill="#707372"></path>
            <path d="M158.062539,43.5677323 C158.082258,42.7098731 157.891644,42.0363109 157.489602,41.5470459 C157.088656,41.0599749 156.492714,40.8142454 155.702872,40.8142454 C155.298639,40.8142454 154.943703,40.8921329 154.638064,41.0424228 C154.33352,41.1938097 154.078273,41.395659 153.872322,41.6468735 C153.666372,41.8991851 153.507527,42.1898919 153.394692,42.5233819 C153.281858,42.857969 153.21832,43.2057201 153.205174,43.5677323 L158.062539,43.5677323 Z M159.704666,44.0537063 C159.704666,44.3115029 159.640033,44.4958 159.510766,44.6033067 C159.381499,44.7130074 159.233609,44.7667607 159.068191,44.7667607 L153.205174,44.7667607 C153.205174,45.2626077 153.255566,45.7079925 153.35416,46.1040119 C153.453848,46.5000313 153.619266,46.8390064 153.851508,47.1231312 C154.08375,47.4072559 154.385008,47.6266573 154.755281,47.7791412 C155.126649,47.9305281 155.581274,48.0062216 156.11806,48.0062216 C156.542011,48.0062216 156.918857,47.9722144 157.250787,47.902006 C157.581623,47.8339915 157.868639,47.7550071 158.11074,47.6694405 C158.352842,47.583874 158.551124,47.5070835 158.706682,47.4368751 C158.862241,47.3677637 158.980553,47.3326595 159.060523,47.3326595 C159.106533,47.3326595 159.148161,47.3425325 159.184312,47.3677637 C159.220463,47.3897038 159.24785,47.425905 159.268664,47.4719793 C159.288383,47.5180536 159.30372,47.58168 159.313579,47.6639555 C159.323439,47.748425 159.32782,47.8460586 159.32782,47.9678264 C159.32782,48.0533929 159.324534,48.1268923 159.319057,48.1894217 C159.312484,48.2519511 159.30372,48.3068014 159.293861,48.3583608 C159.284001,48.4066291 159.267569,48.4527033 159.244564,48.4921956 C159.221559,48.5305908 159.191981,48.5711801 159.154734,48.6051873 C159.118583,48.6424855 159.012322,48.7017239 158.833758,48.7850964 C158.65629,48.8662749 158.425144,48.9474534 158.141414,49.0264379 C157.857684,49.1065194 157.52904,49.1767278 157.156576,49.2403542 C156.784112,49.3017866 156.387548,49.3335997 155.964692,49.3335997 C155.23291,49.3335997 154.592054,49.2315781 154.041027,49.0264379 C153.491095,48.8223946 153.027706,48.5185237 152.651956,48.1148253 C152.27511,47.7122238 151.991381,47.2065037 151.800767,46.5987619 C151.610153,45.9921172 151.513751,45.2856449 151.513751,44.4804419 C151.513751,43.7147312 151.613439,43.025811 151.810626,42.4147782 C152.007813,41.8048425 152.293734,41.2848613 152.666197,40.8592227 C153.038661,40.4335841 153.488904,40.1066761 154.015831,39.8795957 C154.543853,39.6514183 155.134317,39.5362326 155.787224,39.5362326 C156.486141,39.5362326 157.080988,39.6492243 157.572859,39.8741106 C158.063635,40.098997 158.467867,40.4006739 158.784462,40.7802382 C159.101056,41.1598025 159.333298,41.6062843 159.481188,42.1185864 C159.630173,42.6297916 159.704666,43.1761009 159.704666,43.7575145 L159.704666,44.0537063 Z" id="Fill-35" fill="#707372"></path>
            <path d="M163.716977,48.8974299 C163.716977,48.9511832 163.703831,48.9961605 163.677539,49.0312647 C163.651248,49.0685629 163.608524,49.0992791 163.549368,49.1245103 C163.490212,49.1519354 163.408051,49.1716816 163.301789,49.1848456 C163.196623,49.1991067 163.060783,49.2045918 162.896461,49.2045918 C162.738712,49.2045918 162.606159,49.1991067 162.500992,49.1848456 C162.395826,49.1716816 162.311474,49.1519354 162.247936,49.1245103 C162.186589,49.0992791 162.143865,49.0685629 162.119765,49.0312647 C162.09676,48.9961605 162.084709,48.9511832 162.084709,48.8974299 L162.084709,35.6631406 C162.084709,35.6115813 162.09676,35.56441 162.119765,35.5260147 C162.143865,35.4865225 162.186589,35.4525153 162.247936,35.4261871 C162.311474,35.399859 162.395826,35.3790158 162.500992,35.3669488 C162.606159,35.3537847 162.738712,35.3461056 162.896461,35.3461056 C163.060783,35.3461056 163.196623,35.3537847 163.301789,35.3669488 C163.408051,35.3790158 163.490212,35.399859 163.549368,35.4261871 C163.608524,35.4525153 163.651248,35.4865225 163.677539,35.5260147 C163.703831,35.56441 163.716977,35.6115813 163.716977,35.6631406 L163.716977,48.8974299 Z" id="Fill-37" fill="#707372"></path>
            <path d="M168.264759,48.8974299 C168.264759,48.9511832 168.251613,48.9961605 168.225322,49.0312647 C168.19903,49.0685629 168.156306,49.0992791 168.09715,49.1245103 C168.037994,49.1519354 167.954738,49.1716816 167.849571,49.1848456 C167.74331,49.1991067 167.608565,49.2045918 167.444243,49.2045918 C167.285398,49.2045918 167.153941,49.1991067 167.048774,49.1848456 C166.942513,49.1716816 166.858161,49.1519354 166.795718,49.1245103 C166.734371,49.0992791 166.691647,49.0685629 166.667547,49.0312647 C166.644542,48.9961605 166.632491,48.9511832 166.632491,48.8974299 L166.632491,35.6631406 C166.632491,35.6115813 166.644542,35.56441 166.667547,35.5260147 C166.691647,35.4865225 166.734371,35.4525153 166.795718,35.4261871 C166.858161,35.399859 166.942513,35.3790158 167.048774,35.3669488 C167.153941,35.3537847 167.285398,35.3461056 167.444243,35.3461056 C167.608565,35.3461056 167.74331,35.3537847 167.849571,35.3669488 C167.954738,35.3790158 168.037994,35.399859 168.09715,35.4261871 C168.156306,35.4525153 168.19903,35.4865225 168.225322,35.5260147 C168.251613,35.56441 168.264759,35.6115813 168.264759,35.6631406 L168.264759,48.8974299 Z" id="Fill-39" fill="#707372"></path>
            <path d="M182.484547,48.4025701 C182.484547,48.5353079 182.477974,48.6461056 182.464829,48.7338662 C182.451683,48.8238207 182.429773,48.8995142 182.400195,48.9620436 C182.370617,49.02567 182.334466,49.0706472 182.291743,49.1013634 C182.249019,49.1298856 182.197531,49.1463407 182.138375,49.1463407 L176.480213,49.1463407 C176.327941,49.1463407 176.185529,49.0958784 176.049689,48.9916627 C175.914945,48.8885441 175.847025,48.709732 175.847025,48.4530324 L175.847025,36.5845165 C175.847025,36.5329572 175.860171,36.4857859 175.887558,36.4473907 C175.912754,36.4068014 175.959859,36.3749882 176.025588,36.3519511 C176.091317,36.330011 176.180051,36.3091678 176.29179,36.2927127 C176.404625,36.2762576 176.539369,36.2674816 176.698214,36.2674816 C176.862536,36.2674816 176.999471,36.2762576 177.109019,36.2927127 C177.216377,36.3091678 177.304015,36.330011 177.37084,36.3519511 C177.436568,36.3749882 177.482579,36.4068014 177.50887,36.4473907 C177.535162,36.4857859 177.548308,36.5329572 177.548308,36.5845165 L177.548308,47.6697696 L182.138375,47.6697696 C182.197531,47.6697696 182.249019,47.6840307 182.291743,47.7125529 C182.334466,47.7432691 182.370617,47.7860523 182.400195,47.8430967 C182.429773,47.899044 182.451683,47.9725435 182.464829,48.0657891 C182.477974,48.1568406 182.484547,48.2709293 182.484547,48.4025701" id="Fill-41" fill="#707372"></path>
            <path d="M185.706797,48.8974299 C185.706797,48.9511832 185.693651,48.9961605 185.667359,49.0312647 C185.641068,49.0685629 185.598344,49.0992791 185.539188,49.1245103 C185.478937,49.1519354 185.397871,49.1716816 185.291609,49.1848456 C185.185348,49.1991067 185.050603,49.2045918 184.885186,49.2045918 C184.727436,49.2045918 184.595978,49.1991067 184.490812,49.1848456 C184.384551,49.1716816 184.300198,49.1519354 184.237756,49.1245103 C184.176409,49.0992791 184.13259,49.0685629 184.109585,49.0312647 C184.08658,48.9961605 184.074529,48.9511832 184.074529,48.8974299 L184.074529,39.9831531 C184.074529,39.9359818 184.08658,39.8931986 184.109585,39.8548033 C184.13259,39.8153111 184.176409,39.7802069 184.237756,39.7560727 C184.300198,39.7297446 184.384551,39.7089014 184.490812,39.6946403 C184.595978,39.6836703 184.727436,39.6759912 184.885186,39.6759912 C185.050603,39.6759912 185.185348,39.6836703 185.291609,39.6946403 C185.397871,39.7089014 185.478937,39.7297446 185.539188,39.7560727 C185.598344,39.7802069 185.641068,39.8153111 185.667359,39.8548033 C185.693651,39.8931986 185.706797,39.9359818 185.706797,39.9831531 L185.706797,48.8974299 Z M185.89522,36.9718696 C185.89522,37.354725 185.821822,37.6158126 185.677219,37.7551324 C185.532615,37.8933553 185.265318,37.9602727 184.876422,37.9602727 C184.494099,37.9602727 184.232279,37.8944523 184.089866,37.7595205 C183.947453,37.6234916 183.877343,37.367889 183.877343,36.9905187 C183.877343,36.6087604 183.949644,36.3476728 184.094248,36.2094499 C184.239947,36.0701301 184.506149,35.9999216 184.89614,35.9999216 C185.278463,35.9999216 185.540284,36.0690331 185.682696,36.2039649 C185.824013,36.3399937 185.89522,36.5944993 185.89522,36.9718696 L185.89522,36.9718696 Z" id="Fill-43" fill="#707372"></path>
            <path d="M196.28882,48.8974299 C196.28882,48.9511832 196.275674,48.9961605 196.249382,49.0312647 C196.221995,49.0685629 196.179272,49.0992791 196.121211,49.1245103 C196.06096,49.1519354 195.978798,49.1716816 195.873632,49.1848456 C195.767371,49.1991067 195.635913,49.2045918 195.477068,49.2045918 C195.312746,49.2045918 195.176906,49.1991067 195.072835,49.1848456 C194.966574,49.1716816 194.884412,49.1519354 194.825256,49.1245103 C194.765005,49.0992791 194.722281,49.0685629 194.69599,49.0312647 C194.669698,48.9961605 194.656552,48.9511832 194.656552,48.8974299 L194.656552,43.6767748 C194.656552,43.1688607 194.617115,42.7585802 194.53824,42.4503213 C194.45827,42.1398684 194.343245,41.8721987 194.190973,41.6473123 C194.039796,41.422426 193.843705,41.2501959 193.602699,41.1328162 C193.362789,41.0132424 193.083441,40.9529071 192.767942,40.9529071 C192.358232,40.9529071 191.949617,41.098809 191.539907,41.3895157 C191.131293,41.6802225 190.702959,42.1058612 190.254907,42.6664316 L190.254907,48.8974299 C190.254907,48.9511832 190.240666,48.9961605 190.21547,49.0312647 C190.189179,49.0685629 190.146455,49.0992791 190.086203,49.1245103 C190.027047,49.1519354 189.944886,49.1716816 189.83972,49.1848456 C189.733458,49.1991067 189.598714,49.2045918 189.433296,49.2045918 C189.275547,49.2045918 189.142994,49.1991067 189.037827,49.1848456 C188.932661,49.1716816 188.848309,49.1519354 188.785867,49.1245103 C188.723424,49.0992791 188.6807,49.0685629 188.657695,49.0312647 C188.633595,48.9961605 188.62264,48.9511832 188.62264,48.8974299 L188.62264,39.9831531 C188.62264,39.9293998 188.632499,39.8855195 188.652218,39.8493183 C188.671937,39.8120201 188.711374,39.7791099 188.77053,39.7505877 C188.829686,39.7209685 188.90637,39.7001254 188.99839,39.6913493 C189.091506,39.6814763 189.212009,39.6759912 189.364281,39.6759912 C189.508885,39.6759912 189.629387,39.6814763 189.72579,39.6913493 C189.821097,39.7001254 189.895589,39.7209685 189.948173,39.7505877 C190.000756,39.7791099 190.038002,39.8120201 190.062103,39.8493183 C190.084012,39.8855195 190.097158,39.9293998 190.097158,39.9831531 L190.097158,41.1613383 C190.597793,40.5996709 191.097333,40.1904874 191.594681,39.9283028 C192.09203,39.6672152 192.594856,39.5366714 193.103159,39.5366714 C193.69691,39.5366714 194.19645,39.638693 194.601778,39.8383482 C195.008202,40.0412945 195.335751,40.3100611 195.586616,40.6468422 C195.837481,40.9825262 196.016045,41.3785457 196.125593,41.8305125 C196.234046,42.2824792 196.28882,42.8254976 196.28882,43.4595675 L196.28882,48.8974299 Z" id="Fill-45" fill="#707372"></path>
            <path d="M206.475045,48.8877762 C206.475045,48.9404325 206.461899,48.9865068 206.434512,49.0259991 C206.408221,49.0654913 206.364402,49.0984015 206.301959,49.1247297 C206.239517,49.1510578 206.150783,49.171901 206.039044,49.185065 C205.927304,49.1982291 205.785987,49.2048112 205.613997,49.2048112 C205.436529,49.2048112 205.289734,49.1993261 205.174709,49.1894531 C205.058588,49.181774 204.96109,49.1631249 204.882215,49.1400878 C204.80334,49.1170506 204.738707,49.0852374 204.68941,49.0424542 C204.640114,48.9996709 204.595199,48.9481116 204.555762,48.8877762 L200.797164,43.9556339 L200.797164,48.8976493 C200.797164,48.9514026 200.784019,48.9963799 200.757727,49.0314841 C200.731436,49.0687823 200.688712,49.0984015 200.62846,49.1247297 C200.569304,49.1510578 200.487143,49.171901 200.381977,49.185065 C200.275715,49.1982291 200.140971,49.2048112 199.975553,49.2048112 C199.817804,49.2048112 199.685251,49.1982291 199.580084,49.185065 C199.474918,49.171901 199.390566,49.1510578 199.327028,49.1247297 C199.265681,49.0984015 199.222957,49.0687823 199.198857,49.0314841 C199.175852,48.9963799 199.164897,48.9514026 199.164897,48.8976493 L199.164897,35.662263 C199.164897,35.6118007 199.175852,35.5646294 199.198857,35.5251371 C199.222957,35.4856449 199.265681,35.4527347 199.327028,35.4264065 C199.390566,35.4000784 199.474918,35.3792352 199.580084,35.3671682 C199.685251,35.3540041 199.817804,35.346325 199.975553,35.346325 C200.140971,35.346325 200.275715,35.3540041 200.381977,35.3671682 C200.487143,35.3792352 200.569304,35.4000784 200.62846,35.4264065 C200.688712,35.4527347 200.731436,35.4856449 200.757727,35.5251371 C200.784019,35.5646294 200.797164,35.6118007 200.797164,35.662263 L200.797164,43.7274565 L204.160293,40.0217677 C204.212876,39.9559473 204.268745,39.903291 204.327901,39.8594108 C204.388153,39.8155305 204.458264,39.7793293 204.54152,39.7508071 C204.623681,39.7211879 204.720084,39.7003448 204.832918,39.6915687 C204.945753,39.6805987 205.079402,39.6762106 205.238247,39.6762106 C205.402569,39.6762106 205.541695,39.6805987 205.653434,39.6915687 C205.765173,39.7003448 205.856098,39.7167999 205.926209,39.739837 C205.995224,39.7639712 206.044521,39.7935903 206.074099,39.8286946 C206.103677,39.8648958 206.119014,39.9131641 206.119014,39.9724024 C206.119014,40.0524839 206.097104,40.1314684 206.05438,40.2115499 C206.011657,40.2894374 205.94045,40.382683 205.841857,40.4879956 L202.616759,43.7164864 L206.237326,48.4226454 C206.322773,48.535637 206.38412,48.6255916 206.420271,48.694703 C206.456422,48.7638144 206.475045,48.8285378 206.475045,48.8877762" id="Fill-47" fill="#707372"></path>
            <path d="M214.640874,48.8877762 C214.640874,48.9404325 214.627728,48.9865068 214.601437,49.0259991 C214.57405,49.0654913 214.52804,49.0973045 214.463406,49.1203416 C214.396582,49.1433788 214.308943,49.1631249 214.201586,49.181774 C214.092038,49.1971321 213.955103,49.2048112 213.79078,49.2048112 C213.631936,49.2048112 213.497191,49.1971321 213.384357,49.181774 C213.271522,49.1631249 213.182788,49.1433788 213.117059,49.1203416 C213.05133,49.0973045 213.00532,49.0654913 212.979029,49.0259991 C212.952737,48.9865068 212.939591,48.9404325 212.939591,48.8877762 L212.939591,36.5837486 C212.939591,36.5321893 212.953833,36.485018 212.983411,36.4466228 C213.012989,36.4071305 213.063381,36.3753173 213.132396,36.3511832 C213.201411,36.3303401 213.291241,36.3083999 213.399694,36.2930418 C213.508146,36.2765867 213.638509,36.2678107 213.79078,36.2678107 C213.955103,36.2678107 214.092038,36.2765867 214.201586,36.2930418 C214.308943,36.3083999 214.396582,36.3303401 214.463406,36.3511832 C214.52804,36.3753173 214.57405,36.4071305 214.601437,36.4466228 C214.627728,36.485018 214.640874,36.5321893 214.640874,36.5837486 L214.640874,48.8877762 Z" id="Fill-49" fill="#707372"></path>
            <path d="M225.421289,48.8974299 C225.421289,48.9511832 225.408143,48.9961605 225.381852,49.0312647 C225.354464,49.0685629 225.311741,49.0992791 225.25368,49.1245103 C225.193429,49.1519354 225.111268,49.1716816 225.006101,49.1848456 C224.89984,49.1991067 224.768382,49.2045918 224.609537,49.2045918 C224.444119,49.2045918 224.309375,49.1991067 224.205304,49.1848456 C224.099043,49.1716816 224.016882,49.1519354 223.957726,49.1245103 C223.897474,49.0992791 223.85475,49.0685629 223.828459,49.0312647 C223.802167,48.9961605 223.789021,48.9511832 223.789021,48.8974299 L223.789021,43.6767748 C223.789021,43.1688607 223.749584,42.7585802 223.670709,42.4503213 C223.590739,42.1398684 223.475714,41.8721987 223.323442,41.6473123 C223.172265,41.422426 222.976174,41.2501959 222.735168,41.1328162 C222.495258,41.0132424 222.21591,40.9529071 221.900411,40.9529071 C221.490701,40.9529071 221.082086,41.098809 220.672376,41.3895157 C220.263762,41.6802225 219.835429,42.1058612 219.387377,42.6664316 L219.387377,48.8974299 C219.387377,48.9511832 219.374231,48.9961605 219.347939,49.0312647 C219.321648,49.0685629 219.278924,49.0992791 219.218672,49.1245103 C219.159516,49.1519354 219.077355,49.1716816 218.972189,49.1848456 C218.865927,49.1991067 218.731183,49.2045918 218.565765,49.2045918 C218.408016,49.2045918 218.275463,49.1991067 218.170297,49.1848456 C218.06513,49.1716816 217.980778,49.1519354 217.918336,49.1245103 C217.855893,49.0992791 217.81317,49.0685629 217.790164,49.0312647 C217.766064,48.9961605 217.755109,48.9511832 217.755109,48.8974299 L217.755109,39.9831531 C217.755109,39.9293998 217.764968,39.8855195 217.784687,39.8493183 C217.804406,39.8120201 217.843843,39.7791099 217.902999,39.7505877 C217.962155,39.7209685 218.038839,39.7001254 218.130859,39.6913493 C218.223975,39.6814763 218.344478,39.6759912 218.49675,39.6759912 C218.642449,39.6759912 218.762952,39.6814763 218.858259,39.6913493 C218.953566,39.7001254 219.028059,39.7209685 219.080642,39.7505877 C219.133225,39.7791099 219.170471,39.8120201 219.194572,39.8493183 C219.217577,39.8855195 219.229627,39.9293998 219.229627,39.9831531 L219.229627,41.1613383 C219.730262,40.5996709 220.229802,40.1904874 220.72715,39.9283028 C221.225595,39.6672152 221.728421,39.5366714 222.236724,39.5366714 C222.82938,39.5366714 223.328919,39.638693 223.734247,39.8383482 C224.139575,40.0412945 224.46822,40.3100611 224.719085,40.6468422 C224.96995,40.9825262 225.148514,41.3785457 225.258062,41.8305125 C225.366515,42.2824792 225.421289,42.8254976 225.421289,43.4595675 L225.421289,48.8974299 Z" id="Fill-51" fill="#707372"></path>
            <path d="M233.886622,46.4698637 C233.886622,46.9251215 233.80227,47.332111 233.633566,47.6886381 C233.465958,48.0451653 233.226047,48.3468422 232.917121,48.5925717 C232.6071,48.8350102 232.237923,49.0204043 231.809589,49.1454631 C231.380161,49.2705219 230.909104,49.3330512 230.394227,49.3330512 C230.077633,49.3330512 229.776376,49.3100141 229.48936,49.2584548 C229.202343,49.2101865 228.944905,49.1454631 228.717045,49.0708666 C228.49028,48.9962702 228.29638,48.9161887 228.138631,48.8328162 C227.980881,48.7505407 227.86476,48.6781382 227.793554,48.6101238 C227.720157,48.5454004 227.667574,48.4532518 227.633614,48.3325811 C227.601845,48.2141044 227.585413,48.0528444 227.585413,47.8466071 C227.585413,47.7226454 227.59089,47.6162357 227.605131,47.5306692 C227.617182,47.4451026 227.633614,47.3748942 227.654428,47.3211409 C227.674147,47.2706786 227.701534,47.2322833 227.73878,47.2092462 C227.774931,47.1851121 227.815464,47.175239 227.861474,47.175239 C227.934871,47.175239 228.042228,47.2191193 228.183546,47.3090738 C228.324863,47.3968344 228.50014,47.495565 228.707186,47.5997806 C228.915327,47.7050932 229.160715,47.8038239 229.444445,47.8926814 C229.728175,47.9804419 230.053533,48.0265162 230.423805,48.0265162 C230.700962,48.0265162 230.951827,47.996897 231.175306,47.9365617 C231.398784,47.8762263 231.59378,47.7906598 231.759197,47.6743771 C231.92352,47.5591913 232.050595,47.4110954 232.140425,47.2333803 C232.229159,47.0556653 232.272978,46.843943 232.272978,46.5982134 C232.272978,46.3491929 232.20944,46.1374706 232.081269,45.9652406 C231.952002,45.7941075 231.782202,45.6427206 231.57187,45.5099828 C231.360442,45.3772449 231.122723,45.2609622 230.858711,45.1578436 C230.595796,45.055822 230.323021,44.9483153 230.042578,44.8364206 C229.762134,44.7234289 229.48936,44.5983702 229.222062,44.4546623 C228.954765,44.3131484 228.71595,44.1398213 228.504522,43.9346811 C228.294189,43.7306378 228.123294,43.4860053 227.995123,43.2018806 C227.866951,42.9188528 227.802318,42.5787808 227.802318,42.1827613 C227.802318,41.8306222 227.870238,41.4971321 228.004982,41.1768061 C228.140822,40.8564802 228.34239,40.5756465 228.61407,40.334305 C228.884654,40.0940605 229.222062,39.9009873 229.62739,39.7561824 C230.033814,39.6091835 230.505966,39.5367811 231.047134,39.5367811 C231.284854,39.5367811 231.521478,39.5576242 231.759197,39.5960194 C231.996917,39.6355117 232.210536,39.685974 232.402245,39.7452123 C232.593954,39.8044507 232.757181,39.8680771 232.891925,39.9382855 C233.026669,40.007397 233.129645,40.0688293 233.19866,40.1214857 C233.267675,40.174142 233.314781,40.2202163 233.337786,40.2597085 C233.360791,40.2992008 233.377224,40.345275 233.387083,40.3935433 C233.395847,40.4440056 233.405706,40.504341 233.416661,40.5778405 C233.42652,40.6502429 233.430902,40.7380034 233.430902,40.8444131 C233.430902,40.9574048 233.42652,41.0550384 233.416661,41.1384109 C233.405706,41.2195894 233.389274,41.2876038 233.366269,41.3391631 C233.343264,41.3918195 233.315877,41.4302147 233.283012,41.4543488 C233.250148,41.477386 233.213997,41.4883561 233.173464,41.4883561 C233.114308,41.4883561 233.02886,41.4521548 232.917121,41.3786554 C232.804287,41.3062529 232.659683,41.2294625 232.48112,41.1449929 C232.303652,41.0638144 232.093319,40.985927 231.853409,40.9146215 C231.612403,40.8400251 231.337437,40.8060179 231.027416,40.8060179 C230.750259,40.8060179 230.505966,40.835637 230.295634,40.8992634 C230.084206,40.9617928 229.91112,41.0528444 229.776376,41.1669331 C229.640536,41.2821188 229.538656,41.4192446 229.469641,41.5772136 C229.400626,41.7362796 229.36557,41.9074126 229.36557,42.0928068 C229.36557,42.3506034 229.432395,42.5656167 229.563852,42.7422348 C229.69531,42.9166588 229.866205,43.0691428 230.077633,43.2018806 C230.289061,43.3346184 230.530067,43.4530951 230.799555,43.5595048 C231.070139,43.6626234 231.345105,43.7734211 231.625549,43.8864128 C231.905992,43.9983075 232.183149,44.1233662 232.457019,44.2615891 C232.729794,44.3998119 232.972991,44.568751 233.183323,44.7662122 C233.394751,44.9647704 233.564551,45.2039179 233.692722,45.4792666 C233.820894,45.7579063 233.886622,46.0870083 233.886622,46.4698637" id="Fill-53" fill="#707372"></path>
            <path d="M243.744861,48.8974299 C243.744861,48.9511832 243.733906,48.9961605 243.710901,49.0312647 C243.687896,49.0685629 243.646267,49.0992791 243.586016,49.1245103 C243.527955,49.1519354 243.450176,49.1716816 243.354869,49.1848456 C243.259562,49.1991067 243.142346,49.2045918 243.00322,49.2045918 C242.852043,49.2045918 242.728254,49.1991067 242.631852,49.1848456 C242.53764,49.1716816 242.460956,49.1519354 242.405087,49.1245103 C242.349217,49.0992791 242.310875,49.0685629 242.291157,49.0312647 C242.271438,48.9961605 242.261579,48.9511832 242.261579,48.8974299 L242.261579,47.7181476 C241.753275,48.2809121 241.25264,48.6911926 240.757483,48.9478922 C240.26342,49.2045918 239.76169,49.3329415 239.254482,49.3329415 C238.660731,49.3329415 238.161191,49.2353079 237.755863,49.0367497 C237.350535,48.8381915 237.021891,48.5705219 236.772121,48.2304498 C236.521256,47.8892807 236.340501,47.4932612 236.232048,47.0412945 C236.123596,46.5882307 236.068822,46.0397273 236.068822,45.3913963 L236.068822,39.9831531 C236.068822,39.9293998 236.080872,39.8855195 236.103877,39.8493183 C236.126882,39.8120201 236.171797,39.7791099 236.237526,39.7505877 C236.303255,39.7209685 236.388702,39.7001254 236.494964,39.6913493 C236.60013,39.6814763 236.732683,39.6759912 236.890433,39.6759912 C237.048182,39.6759912 237.17964,39.6814763 237.285902,39.6913493 C237.391068,39.7001254 237.47542,39.7209685 237.537862,39.7505877 C237.6014,39.7791099 237.64522,39.8120201 237.671511,39.8493183 C237.697803,39.8855195 237.710948,39.9293998 237.710948,39.9831531 L237.710948,45.173092 C237.710948,45.6952672 237.74929,46.1132268 237.824879,46.4258737 C237.900467,46.7407146 238.016588,47.0072873 238.171051,47.2288826 C238.326609,47.450478 238.521605,47.621611 238.759324,47.7433788 C238.997044,47.8662435 239.274201,47.9265789 239.590795,47.9265789 C239.999409,47.9265789 240.406929,47.781774 240.812257,47.4910672 C241.217585,47.2014575 241.648109,46.7758188 242.102734,46.2130544 L242.102734,39.9831531 C242.102734,39.9293998 242.114784,39.8855195 242.137789,39.8493183 C242.160794,39.8120201 242.205709,39.7791099 242.271438,39.7505877 C242.337167,39.7209685 242.421519,39.7001254 242.523399,39.6913493 C242.626374,39.6814763 242.760023,39.6759912 242.924345,39.6759912 C243.08319,39.6759912 243.214648,39.6814763 243.319814,39.6913493 C243.42498,39.7001254 243.508237,39.7209685 243.567393,39.7505877 C243.626549,39.7791099 243.671463,39.8120201 243.701042,39.8493183 C243.73062,39.8855195 243.744861,39.9293998 243.744861,39.9831531 L243.744861,48.8974299 Z" id="Fill-55" fill="#707372"></path>
            <path d="M251.864241,40.5670898 C251.864241,40.7118947 251.860955,40.8347594 251.854382,40.9345871 C251.847809,41.0333177 251.834663,41.1112051 251.814945,41.1671525 C251.795226,41.2241968 251.77003,41.2669801 251.740452,41.2955023 C251.709778,41.3251215 251.669246,41.3393825 251.616662,41.3393825 C251.564079,41.3393825 251.499446,41.3251215 251.423858,41.2955023 C251.348269,41.2669801 251.262822,41.2362639 251.16642,41.2055477 C251.071113,41.1770255 250.963755,41.1485034 250.845443,41.1221752 C250.726036,41.09475 250.597865,41.081586 250.458738,41.081586 C250.294416,41.081586 250.132285,41.1166902 249.974536,41.1814136 C249.815691,41.247234 249.650273,41.3580317 249.474996,41.5072246 C249.300814,41.6597085 249.117869,41.8615577 248.92616,42.1127723 C248.735546,42.3650838 248.524118,42.6700517 248.292971,43.034258 L248.292971,48.897759 C248.292971,48.9515123 248.279826,48.9964896 248.253534,49.0315938 C248.227243,49.068892 248.184519,49.0985112 248.124267,49.1248394 C248.065111,49.1511675 247.984046,49.1720107 247.877784,49.1840777 C247.771522,49.1983388 247.636778,49.2049209 247.47136,49.2049209 C247.313611,49.2049209 247.182153,49.1983388 247.075891,49.1840777 C246.970725,49.1720107 246.886373,49.1511675 246.823931,49.1248394 C246.761488,49.0985112 246.718764,49.068892 246.695759,49.0315938 C246.671659,48.9964896 246.660704,48.9515123 246.660704,48.897759 L246.660704,39.9834822 C246.660704,39.9297289 246.670563,39.8858486 246.690282,39.8496474 C246.710001,39.8123492 246.749438,39.779439 246.808594,39.7509168 C246.868845,39.7212976 246.944434,39.7004545 247.03755,39.6916784 C247.12957,39.6807084 247.251169,39.6763203 247.402345,39.6763203 C247.548044,39.6763203 247.668547,39.6807084 247.763854,39.6916784 C247.859161,39.7004545 247.933654,39.7212976 247.986237,39.7509168 C248.03882,39.779439 248.076066,39.8123492 248.100167,39.8496474 C248.123172,39.8858486 248.135222,39.9297289 248.135222,39.9834822 L248.135222,41.2790472 C248.378419,40.923617 248.607375,40.6351042 248.822089,40.4091208 C249.035708,40.1842344 249.239468,40.0076164 249.430081,39.8792666 C249.621791,39.7509168 249.811309,39.6609622 249.998636,39.6115969 C250.187059,39.5611346 250.377673,39.5370005 250.568287,39.5370005 C250.653734,39.5370005 250.751232,39.5413885 250.859685,39.5523586 C250.969233,39.5611346 251.083163,39.5808807 251.201475,39.6061119 C251.319787,39.6324401 251.427144,39.6620592 251.522451,39.6949694 C251.617758,39.7289766 251.685678,39.7618869 251.726211,39.7947971 C251.765648,39.8277073 251.791939,39.8595205 251.805085,39.8902366 C251.818231,39.9187588 251.829186,39.956057 251.840141,40.0021313 C251.848905,40.0482056 251.855477,40.117317 251.858764,40.2061746 C251.86205,40.2939351 251.864241,40.4146059 251.864241,40.5670898" id="Fill-57" fill="#707372"></path>
            <path d="M258.291103,44.8362012 L256.896555,44.8362012 C256.447407,44.8362012 256.059607,44.8734995 255.729867,44.9513869 C255.399032,45.0270804 255.126257,45.1389751 254.908256,45.285974 C254.690255,45.4362639 254.530315,45.612882 254.428435,45.8213133 C254.326555,46.0308416 254.275067,46.269989 254.275067,46.5398527 C254.275067,47.0038865 254.421862,47.3702868 254.715451,47.6456355 C255.00904,47.9198872 255.419846,48.055916 255.946772,48.055916 C256.375106,48.055916 256.772765,47.9462153 257.139752,47.729008 C257.504547,47.5118007 257.889061,47.1772136 258.291103,46.7274408 L258.291103,44.8362012 Z M259.913511,48.9082902 C259.913511,48.9861777 259.887219,49.0476101 259.834636,49.0860053 C259.782053,49.1244006 259.708656,49.1562138 259.616635,49.1759599 C259.524615,49.194609 259.388775,49.2044821 259.211307,49.2044821 C259.039317,49.2044821 258.903477,49.194609 258.800502,49.1759599 C258.698622,49.1562138 258.624129,49.1244006 258.578119,49.0860053 C258.532109,49.0476101 258.509104,48.9861777 258.509104,48.9082902 L258.509104,48.0153268 C258.120208,48.4321893 257.686397,48.7547093 257.208767,48.9861777 C256.730042,49.2187431 256.223929,49.3339289 255.689334,49.3339289 C255.221564,49.3339289 254.798708,49.2724965 254.418576,49.1507287 C254.039539,49.027864 253.716372,48.8512459 253.45017,48.6208745 C253.181777,48.389406 252.974731,48.1052813 252.826841,47.7695972 C252.677855,47.4317192 252.604458,47.0488638 252.604458,46.6199342 C252.604458,46.1164081 252.706338,45.6819934 252.910097,45.3123021 C253.113857,44.9426109 253.407446,44.635449 253.790865,44.3908165 C254.173188,44.145087 254.640958,43.9629839 255.195272,43.8401191 C255.749586,43.7194484 256.372915,43.658016 257.065259,43.658016 L258.291103,43.658016 L258.291103,42.9647077 C258.291103,42.6213446 258.254952,42.3174738 258.18265,42.0541921 C258.110348,41.7887165 257.993132,41.5682181 257.831001,41.3948911 C257.669965,41.21937 257.460728,41.0866322 257.20329,40.9988717 C256.945851,40.9089171 256.629257,40.8650368 256.254603,40.8650368 C255.851465,40.8650368 255.489956,40.9133051 255.170076,41.0076477 C254.850195,41.1030873 254.570847,41.2094969 254.329842,41.3257797 C254.088836,41.4398684 253.888362,41.546278 253.726231,41.6417176 C253.565195,41.7382542 253.444692,41.7865225 253.364722,41.7865225 C253.312139,41.7865225 253.266129,41.7722614 253.226692,41.7459332 C253.187254,41.7185081 253.153294,41.6801128 253.123716,41.6274565 C253.093043,41.5737032 253.071133,41.5078828 253.059083,41.4245103 C253.045937,41.3411378 253.039364,41.2500862 253.039364,41.1513556 C253.039364,40.9857076 253.050319,40.8562608 253.073324,40.7597242 C253.096329,40.6642846 253.153294,40.573233 253.242028,40.4876665 C253.330762,40.4021 253.48413,40.3022724 253.702131,40.1859897 C253.919036,40.0697069 254.169901,39.9654913 254.453631,39.8689547 C254.736265,39.7735151 255.046286,39.6945306 255.383695,39.6309042 C255.720008,39.5683749 256.059607,39.5365617 256.402493,39.5365617 C257.041158,39.5365617 257.585613,39.6089641 258.03476,39.755963 C258.482812,39.9007679 258.845416,40.1124902 259.122573,40.3933239 C259.39973,40.6741577 259.600203,41.0219088 259.726184,41.4387714 C259.851068,41.8556339 259.913511,42.3405109 259.913511,42.8944993 L259.913511,48.9082902 Z" id="Fill-59" fill="#707372"></path>
            <path d="M270.475048,48.8974299 C270.475048,48.9511832 270.461903,48.9961605 270.435611,49.0312647 C270.408224,49.0685629 270.3655,49.0992791 270.30744,49.1245103 C270.247188,49.1519354 270.165027,49.1716816 270.059861,49.1848456 C269.953599,49.1991067 269.822141,49.2045918 269.664392,49.2045918 C269.498974,49.2045918 269.363135,49.1991067 269.259064,49.1848456 C269.152802,49.1716816 269.070641,49.1519354 269.011485,49.1245103 C268.951234,49.0992791 268.90851,49.0685629 268.882218,49.0312647 C268.855927,48.9961605 268.842781,48.9511832 268.842781,48.8974299 L268.842781,43.6767748 C268.842781,43.1688607 268.803344,42.7585802 268.724469,42.4503213 C268.645594,42.1398684 268.530569,41.8721987 268.378297,41.6473123 C268.226025,41.422426 268.031029,41.2501959 267.790023,41.1328162 C267.549017,41.0132424 267.269669,40.9529071 266.954171,40.9529071 C266.544461,40.9529071 266.135846,41.098809 265.727231,41.3895157 C265.318617,41.6802225 264.889188,42.1058612 264.441136,42.6664316 L264.441136,48.8974299 C264.441136,48.9511832 264.426895,48.9961605 264.401699,49.0312647 C264.375407,49.0685629 264.332683,49.0992791 264.273527,49.1245103 C264.213276,49.1519354 264.131115,49.1716816 264.025949,49.1848456 C263.920782,49.1991067 263.784943,49.2045918 263.619525,49.2045918 C263.461776,49.2045918 263.330318,49.1991067 263.225152,49.1848456 C263.11889,49.1716816 263.034538,49.1519354 262.972095,49.1245103 C262.909653,49.0992791 262.866929,49.0685629 262.843924,49.0312647 C262.819823,48.9961605 262.808869,48.9511832 262.808869,48.8974299 L262.808869,39.9831531 C262.808869,39.9293998 262.818728,39.8855195 262.838447,39.8493183 C262.858165,39.8120201 262.898698,39.7791099 262.957854,39.7505877 C263.01701,39.7209685 263.092598,39.7001254 263.185714,39.6913493 C263.277735,39.6814763 263.399333,39.6759912 263.551605,39.6759912 C263.696209,39.6759912 263.816712,39.6814763 263.912019,39.6913493 C264.007325,39.7001254 264.081818,39.7209685 264.134401,39.7505877 C264.186984,39.7791099 264.225326,39.8120201 264.248331,39.8493183 C264.271336,39.8855195 264.283387,39.9293998 264.283387,39.9831531 L264.283387,41.1613383 C264.784022,40.5996709 265.283561,40.1904874 265.782006,39.9283028 C266.279354,39.6672152 266.78218,39.5366714 267.290484,39.5366714 C267.883139,39.5366714 268.382679,39.638693 268.788007,39.8383482 C269.194431,40.0412945 269.521979,40.3100611 269.772845,40.6468422 C270.02371,40.9825262 270.202274,41.3785457 270.311822,41.8305125 C270.42137,42.2824792 270.475048,42.8254976 270.475048,43.4595675 L270.475048,48.8974299 Z" id="Fill-61" fill="#707372"></path>
            <path d="M279.752462,47.5401034 C279.752462,47.6530951 279.749176,47.7496317 279.742603,47.8341012 C279.734935,47.9152797 279.72398,47.9843912 279.707548,48.0414355 C279.69002,48.0962858 279.671397,48.1467482 279.647296,48.1895314 C279.625387,48.2323147 279.571708,48.2937471 279.490642,48.3782166 C279.407386,48.4604921 279.267164,48.5625137 279.068882,48.6853785 C278.871695,48.8071462 278.649313,48.9157499 278.401734,49.0122865 C278.15525,49.1077261 277.885762,49.1845165 277.595459,49.2459489 C277.306252,49.3040903 277.004995,49.3337094 276.696069,49.3337094 C276.056308,49.3337094 275.488848,49.2272998 274.993691,49.0177715 C274.499628,48.8060492 274.085536,48.4966933 273.75251,48.0908008 C273.419484,47.6838113 273.165332,47.1857703 272.99115,46.5955806 C272.815873,46.004294 272.728235,45.3219558 272.728235,44.5496631 C272.728235,43.6720577 272.835592,42.91622 273.050306,42.2865382 C273.265021,41.6546623 273.557514,41.1379721 273.931074,40.7364676 C274.303537,40.3327692 274.74173,40.0343833 275.245651,39.8391161 C275.750668,39.6449459 276.296218,39.5473123 276.883396,39.5473123 C277.167126,39.5473123 277.442092,39.5736405 277.709389,39.6273938 C277.975591,39.6789531 278.222075,39.7469676 278.446648,39.8336311 C278.670127,39.9202946 278.869504,40.0201222 279.044781,40.1309199 C279.218963,40.2439116 279.346039,40.3404482 279.424913,40.4183357 C279.504884,40.4973202 279.558562,40.5609466 279.589236,40.6081178 C279.618814,40.6530951 279.642914,40.7068485 279.662633,40.7704748 C279.682352,40.8330042 279.695497,40.9043097 279.703166,40.9832942 C279.708643,41.0633756 279.71193,41.1621063 279.71193,41.279486 C279.71193,41.5372826 279.682352,41.7182887 279.623196,41.8203103 C279.56404,41.9223319 279.491738,41.9738912 279.40629,41.9738912 C279.306601,41.9738912 279.192671,41.9201379 279.0645,41.8093402 C278.935233,41.7018336 278.772006,41.5800658 278.57482,41.448425 C278.376538,41.3167842 278.137723,41.1972105 277.857279,41.0864128 C277.576836,40.9789061 277.246001,40.9240558 276.863678,40.9240558 C276.078217,40.9240558 275.476798,41.2257326 275.058324,41.8301834 C274.63985,42.4346341 274.430613,43.3111425 274.430613,44.4597085 C274.430613,45.03454 274.484292,45.5380661 274.592744,45.9702868 C274.702293,46.4036045 274.862233,46.7645197 275.073661,47.0563235 C275.283993,47.3459332 275.542527,47.5631406 275.849262,47.7046544 C276.155997,47.8461683 276.507646,47.9163767 276.903115,47.9163767 C277.278865,47.9163767 277.608605,47.8571384 277.892335,47.7386617 C278.176065,47.6190879 278.421452,47.4896411 278.629594,47.3470302 C278.83664,47.2055164 279.010821,47.0771666 279.15433,46.9608839 C279.295647,46.8446012 279.40629,46.7875568 279.485165,46.7875568 C279.531175,46.7875568 279.570613,46.8007209 279.603477,46.8270491 C279.636341,46.8533772 279.664824,46.8983545 279.686734,46.9608839 C279.710834,47.0245103 279.727266,47.1023977 279.737126,47.1989343 C279.746985,47.2943739 279.752462,47.4073656 279.752462,47.5401034" id="Fill-63" fill="#707372"></path>
            <path d="M287.771716,43.5677323 C287.791435,42.7098731 287.600821,42.0363109 287.199875,41.5470459 C286.797833,41.0599749 286.201891,40.8142454 285.412049,40.8142454 C285.007816,40.8142454 284.65288,40.8921329 284.348336,41.0424228 C284.042697,41.1938097 283.786354,41.395659 283.581499,41.6468735 C283.375549,41.8991851 283.216704,42.1898919 283.103869,42.5233819 C282.991035,42.857969 282.927497,43.2057201 282.914351,43.5677323 L287.771716,43.5677323 Z M289.413843,44.0537063 C289.413843,44.3115029 289.348114,44.4958 289.219943,44.6033067 C289.090676,44.7130074 288.942786,44.7667607 288.777368,44.7667607 L282.914351,44.7667607 C282.914351,45.2626077 282.964743,45.7079925 283.063336,46.1040119 C283.163025,46.5000313 283.328443,46.8390064 283.560685,47.1231312 C283.791832,47.4072559 284.094184,47.6266573 284.464457,47.7791412 C284.835825,47.9305281 285.29045,48.0062216 285.827236,48.0062216 C286.251188,48.0062216 286.629129,47.9722144 286.959964,47.902006 C287.2908,47.8339915 287.577816,47.7550071 287.819917,47.6694405 C288.062019,47.583874 288.260301,47.5070835 288.415859,47.4368751 C288.571417,47.3677637 288.689729,47.3326595 288.7697,47.3326595 C288.81571,47.3326595 288.856243,47.3425325 288.893489,47.3677637 C288.92964,47.3897038 288.957027,47.425905 288.977841,47.4719793 C288.99756,47.5180536 289.012897,47.58168 289.022756,47.6639555 C289.032615,47.748425 289.036997,47.8460586 289.036997,47.9678264 C289.036997,48.0533929 289.033711,48.1268923 289.028233,48.1894217 C289.02166,48.2519511 289.012897,48.3068014 289.003037,48.3583608 C288.993178,48.4066291 288.976746,48.4527033 288.953741,48.4921956 C288.930735,48.5305908 288.901157,48.5711801 288.865007,48.6051873 C288.82776,48.6424855 288.721498,48.7017239 288.542935,48.7850964 C288.365467,48.8662749 288.13432,48.9474534 287.850591,49.0264379 C287.566861,49.1065194 287.238216,49.1767278 286.865753,49.2403542 C286.493289,49.3017866 286.096725,49.3335997 285.673869,49.3335997 C284.943183,49.3335997 284.30123,49.2315781 283.750203,49.0264379 C283.200271,48.8223946 282.736883,48.5185237 282.361133,48.1148253 C281.985382,47.7122238 281.701653,47.2065037 281.509943,46.5987619 C281.318234,45.9921172 281.222927,45.2856449 281.222927,44.4804419 C281.222927,43.7147312 281.322616,43.025811 281.519803,42.4147782 C281.718085,41.8048425 282.00291,41.2848613 282.375374,40.8592227 C282.747838,40.4335841 283.198081,40.1066761 283.726103,39.8795957 C284.253029,39.6514183 284.843494,39.5362326 285.496401,39.5362326 C286.195318,39.5362326 286.790164,39.6492243 287.282036,39.8741106 C287.772811,40.098997 288.177044,40.4006739 288.493638,40.7802382 C288.810232,41.1598025 289.042475,41.6062843 289.19146,42.1185864 C289.33935,42.6297916 289.413843,43.1761009 289.413843,43.7575145 L289.413843,44.0537063 Z" id="Fill-65" fill="#707372"></path>
            <path d="M306.076117,38.0709607 C306.076117,38.1960194 306.069544,38.3068171 306.056398,38.4033537 C306.043252,38.4998903 306.022438,38.5777778 305.997242,38.6414042 C305.970951,38.7028365 305.936991,38.7489108 305.897553,38.774142 C305.858116,38.8004701 305.815392,38.8147312 305.769382,38.8147312 C305.690507,38.8147312 305.557954,38.7511048 305.372818,38.6249491 C305.188777,38.4998903 304.941198,38.3616675 304.632272,38.2102805 C304.321155,38.0566996 303.949787,37.9173797 303.518168,37.793418 C303.086548,37.6694562 302.574958,37.6047328 301.981207,37.6047328 C301.275717,37.6047328 300.641433,37.7330826 300.081642,37.9919762 C299.520755,38.2486758 299.045316,38.6063 298.657516,39.0615577 C298.267525,39.5168155 297.969554,40.0576399 297.762508,40.6862247 C297.554366,41.3148096 297.450295,41.9927598 297.450295,42.7255603 C297.450295,43.5450243 297.564225,44.2712428 297.792086,44.9053126 C298.01885,45.5404795 298.334349,46.0736248 298.736391,46.5102335 C299.138432,46.9468422 299.618253,47.2770412 300.174758,47.5019276 C300.732358,47.726814 301.344732,47.8376117 302.010785,47.8376117 C302.406254,47.8376117 302.806105,47.7904404 303.212528,47.6939038 C303.617856,47.5984642 303.995797,47.4547563 304.345256,47.2627801 L304.345256,43.5296662 L301.377597,43.5296662 C301.264762,43.5296662 301.18041,43.4737189 301.12454,43.3607272 C301.069766,43.2488325 301.041284,43.0733114 301.041284,42.8363579 C301.041284,42.7102022 301.046761,42.6026955 301.061002,42.514935 C301.074148,42.4249804 301.094962,42.350384 301.12454,42.2955336 C301.155214,42.2395863 301.189174,42.198997 301.228611,42.1715719 C301.268048,42.1452437 301.318441,42.1309826 301.377597,42.1309826 L305.442929,42.1309826 C305.51523,42.1309826 305.588628,42.1452437 305.660929,42.1715719 C305.733231,42.198997 305.79896,42.2384893 305.858116,42.2911456 C305.917272,42.3438019 305.963282,42.4151073 305.997242,42.5094499 C306.029011,42.6015985 306.046539,42.7080081 306.046539,42.8253879 L306.046539,47.7092619 C306.046539,47.8814919 306.016961,48.0284908 305.957805,48.1546466 C305.897553,48.2818994 305.772669,48.3905031 305.580959,48.4870396 C305.390345,48.5824792 305.142767,48.6866949 304.839318,48.7974926 C304.53587,48.9104843 304.222562,49.0070208 303.899395,49.0860053 C303.577324,49.1649898 303.25087,49.2242282 302.920035,49.2637204 C302.590295,49.3043097 302.263841,49.3229588 301.94177,49.3229588 C300.95255,49.3229588 300.068496,49.1704748 299.289609,48.862216 C298.512912,48.5572481 297.854528,48.1184454 297.316647,47.5501959 C296.778765,46.9819464 296.369055,46.3018022 296.085325,45.5097634 C295.801596,44.7177245 295.660278,43.8324401 295.660278,42.85391 C295.660278,41.8391788 295.81255,40.9187902 296.120381,40.0916471 C296.42602,39.265601 296.85764,38.5635167 297.41524,37.9821031 C297.97284,37.4017866 298.642179,36.9509168 299.423258,36.6294938 C300.205431,36.3091678 301.070862,36.1490049 302.019549,36.1490049 C302.508134,36.1490049 302.966045,36.1917881 303.395474,36.2784517 C303.823807,36.3640182 304.203939,36.4638458 304.538061,36.5812255 C304.869992,36.6953142 305.150435,36.82147 305.378295,36.9564018 C305.606155,37.0913336 305.762809,37.2032283 305.848257,37.2887949 C305.933704,37.3743614 305.99286,37.473092 306.02682,37.5860837 C306.059685,37.6979784 306.076117,37.8592384 306.076117,38.0709607" id="Fill-67" fill="#707372"></path>
            <path d="M314.155841,40.5670898 C314.155841,40.7118947 314.152555,40.8347594 314.145982,40.9345871 C314.139409,41.0333177 314.126263,41.1112051 314.106544,41.1671525 C314.08573,41.2241968 314.06163,41.2669801 314.032052,41.2955023 C314.001378,41.3251215 313.960845,41.3393825 313.908262,41.3393825 C313.855679,41.3393825 313.791046,41.3251215 313.715457,41.2955023 C313.639869,41.2669801 313.554422,41.2362639 313.458019,41.2055477 C313.362712,41.1770255 313.255355,41.1485034 313.137043,41.1221752 C313.017636,41.09475 312.889464,41.081586 312.750338,41.081586 C312.586016,41.081586 312.423885,41.1166902 312.266135,41.1814136 C312.107291,41.247234 311.940777,41.3580317 311.766596,41.5072246 C311.592414,41.6597085 311.409469,41.8615577 311.21776,42.1127723 C311.02605,42.3650838 310.815718,42.6700517 310.584571,43.034258 L310.584571,48.897759 C310.584571,48.9515123 310.571425,48.9964896 310.545134,49.0315938 C310.518842,49.068892 310.476119,49.0985112 310.415867,49.1248394 C310.356711,49.1511675 310.27455,49.1720107 310.169384,49.1840777 C310.063122,49.1983388 309.928378,49.2049209 309.76296,49.2049209 C309.605211,49.2049209 309.473753,49.1983388 309.367491,49.1840777 C309.262325,49.1720107 309.177973,49.1511675 309.11553,49.1248394 C309.053088,49.0985112 309.010364,49.068892 308.987359,49.0315938 C308.963259,48.9964896 308.952304,48.9515123 308.952304,48.897759 L308.952304,39.9834822 C308.952304,39.9297289 308.962163,39.8858486 308.981882,39.8496474 C309.0016,39.8123492 309.042133,39.779439 309.100194,39.7509168 C309.160445,39.7212976 309.236033,39.7004545 309.329149,39.6916784 C309.42117,39.6807084 309.542768,39.6763203 309.693945,39.6763203 C309.839644,39.6763203 309.960147,39.6807084 310.055454,39.6916784 C310.15076,39.7004545 310.225253,39.7212976 310.277836,39.7509168 C310.330419,39.779439 310.367666,39.8123492 310.391766,39.8496474 C310.414772,39.8858486 310.426822,39.9297289 310.426822,39.9834822 L310.426822,41.2790472 C310.670019,40.923617 310.898974,40.6351042 311.113689,40.4091208 C311.327308,40.1842344 311.529972,40.0076164 311.721681,39.8792666 C311.91339,39.7509168 312.102909,39.6609622 312.290236,39.6115969 C312.478659,39.5611346 312.668177,39.5370005 312.859886,39.5370005 C312.945334,39.5370005 313.042832,39.5413885 313.151284,39.5523586 C313.260833,39.5611346 313.374763,39.5808807 313.493075,39.6061119 C313.611387,39.6324401 313.718744,39.6620592 313.814051,39.6949694 C313.909358,39.7289766 313.977277,39.7618869 314.01781,39.7947971 C314.057248,39.8277073 314.083539,39.8595205 314.096685,39.8902366 C314.109831,39.9187588 314.120786,39.956057 314.13174,40.0021313 C314.140504,40.0482056 314.147077,40.117317 314.150364,40.2061746 C314.15365,40.2939351 314.155841,40.4146059 314.155841,40.5670898" id="Fill-69" fill="#707372"></path>
            <path d="M322.175094,44.4504937 C322.175094,43.9689077 322.129084,43.5125529 322.039255,43.0836233 C321.950521,42.6535966 321.801535,42.2773233 321.595585,41.9548033 C321.389634,41.6311863 321.110286,41.3744868 320.757541,41.1858016 C320.404796,40.9993105 319.965508,40.9049679 319.439677,40.9049679 C318.953283,40.9049679 318.537,40.9905344 318.187542,41.1616675 C317.838083,41.3328005 317.549971,41.577433 317.324302,41.8900799 C317.097538,42.2038239 316.928833,42.5746121 316.819285,43.0046388 C316.709737,43.4324714 316.654963,43.9019903 316.654963,44.4110014 C316.654963,44.8991694 316.699878,45.3588152 316.789707,45.7877449 C316.879537,46.2155775 317.029618,46.5907538 317.238855,46.9121768 C317.449187,47.2325027 317.72963,47.4859113 318.082375,47.6734995 C318.435121,47.8621846 318.874409,47.9565272 319.40024,47.9565272 C319.880061,47.9565272 320.295248,47.8709607 320.647993,47.6998276 C321.000738,47.5286946 321.289945,47.2873531 321.515615,46.9769002 C321.742379,46.6664473 321.907797,46.296756 322.015154,45.8667294 C322.121416,45.4356057 322.175094,44.9649898 322.175094,44.4504937 M323.865422,44.340793 C323.865422,45.0659144 323.770116,45.7361856 323.579502,46.3472183 C323.387793,46.9571541 323.102967,47.4859113 322.723931,47.926908 C322.344894,48.3690017 321.869455,48.7145588 321.299805,48.9613854 C320.729059,49.2104059 320.068483,49.3332706 319.315888,49.3332706 C318.584106,49.3332706 317.946536,49.224667 317.402081,49.0063626 C316.857627,48.7880583 316.404098,48.4710234 316.041493,48.0552578 C315.678889,47.6394922 315.409401,47.1337721 315.230837,46.5391945 C315.052274,45.9446168 314.96354,45.2732487 314.96354,44.5196051 C314.96354,43.7922896 315.057751,43.1253095 315.245078,42.5142768 C315.433501,41.904341 315.717231,41.3755838 316.096267,40.9345871 C316.475304,40.4924933 316.948552,40.1480332 317.516011,39.9023037 C318.082375,39.6598652 318.745142,39.5359035 319.50431,39.5359035 C320.236092,39.5359035 320.873662,39.6456041 321.418117,39.8639085 C321.962571,40.0833098 322.4161,40.3992478 322.777609,40.8150133 C323.140214,41.2307789 323.412989,41.735402 323.594839,42.3288826 C323.775593,42.9234603 323.865422,43.5959254 323.865422,44.340793" id="Fill-71" fill="#707372"></path>
            <path d="M333.795853,48.8974299 C333.795853,48.9511832 333.784898,48.9961605 333.760798,49.0312647 C333.737793,49.0685629 333.69726,49.0992791 333.637008,49.1245103 C333.578948,49.1519354 333.501169,49.1716816 333.404766,49.1848456 C333.309459,49.1991067 333.192243,49.2045918 333.054212,49.2045918 C332.903036,49.2045918 332.778151,49.1991067 332.682844,49.1848456 C332.587537,49.1716816 332.510853,49.1519354 332.456079,49.1245103 C332.40021,49.0992791 332.360772,49.0685629 332.341054,49.0312647 C332.32243,48.9961605 332.312571,48.9511832 332.312571,48.8974299 L332.312571,47.7181476 C331.804268,48.2809121 331.303633,48.6911926 330.808475,48.9478922 C330.314413,49.2045918 329.812682,49.3329415 329.304379,49.3329415 C328.710628,49.3329415 328.211088,49.2353079 327.806855,49.0367497 C327.400432,48.8381915 327.071787,48.5705219 326.822018,48.2304498 C326.571152,47.8892807 326.391493,47.4932612 326.283041,47.0412945 C326.174588,46.5882307 326.119814,46.0397273 326.119814,45.3913963 L326.119814,39.9831531 C326.119814,39.9293998 326.131864,39.8855195 326.153774,39.8493183 C326.177874,39.8120201 326.221694,39.7791099 326.288518,39.7505877 C326.354247,39.7209685 326.439695,39.7001254 326.544861,39.6913493 C326.651122,39.6814763 326.78258,39.6759912 326.94033,39.6759912 C327.099174,39.6759912 327.230632,39.6814763 327.336894,39.6913493 C327.44206,39.7001254 327.525317,39.7209685 327.588855,39.7505877 C327.651297,39.7791099 327.696212,39.8120201 327.722503,39.8493183 C327.747699,39.8855195 327.761941,39.9293998 327.761941,39.9831531 L327.761941,45.173092 C327.761941,45.6952672 327.799187,46.1132268 327.875871,46.4258737 C327.951459,46.7407146 328.066485,47.0072873 328.222043,47.2288826 C328.376506,47.450478 328.572597,47.621611 328.810317,47.7433788 C329.046941,47.8662435 329.324097,47.9265789 329.641787,47.9265789 C330.050402,47.9265789 330.456825,47.781774 330.863249,47.4910672 C331.268577,47.2014575 331.699101,46.7758188 332.153726,46.2130544 L332.153726,39.9831531 C332.153726,39.9293998 332.164681,39.8855195 332.188782,39.8493183 C332.211787,39.8120201 332.255606,39.7791099 332.32243,39.7505877 C332.387064,39.7209685 332.472511,39.7001254 332.574391,39.6913493 C332.676271,39.6814763 332.80992,39.6759912 332.975337,39.6759912 C333.133087,39.6759912 333.264545,39.6814763 333.370806,39.6913493 C333.475972,39.7001254 333.558134,39.7209685 333.61729,39.7505877 C333.676446,39.7791099 333.72136,39.8120201 333.750938,39.8493183 C333.780516,39.8855195 333.795853,39.9293998 333.795853,39.9831531 L333.795853,48.8974299 Z" id="Fill-73" fill="#707372"></path>
            <path d="M343.21064,44.4902053 C343.21064,44.0349475 343.175585,43.5939508 343.105474,43.1683122 C343.036459,42.7415766 342.917051,42.3653032 342.748347,42.0329102 C342.577452,41.7027112 342.350687,41.4394296 342.065862,41.2408713 C341.779942,41.0423131 341.425006,40.9435825 340.999959,40.9435825 C340.788531,40.9435825 340.579294,40.9742987 340.374439,41.0390221 C340.168488,41.1004545 339.959251,41.1991851 339.746728,41.3341169 C339.534204,41.4701457 339.311822,41.6489578 339.07958,41.8683592 C338.847338,42.0910516 338.60195,42.3653032 338.343416,42.6867262 L338.343416,46.233349 C338.794754,46.7807554 339.223088,47.202006 339.62732,47.4905187 C340.032649,47.7823225 340.4566,47.9271274 340.901365,47.9271274 C341.313266,47.9271274 341.666011,47.8283968 341.960696,47.6298386 C342.256476,47.4323774 342.495291,47.1658047 342.678236,46.8377997 C342.860086,46.5076007 342.994831,46.1379094 343.080278,45.7287259 C343.167917,45.3184454 343.21064,44.9059709 343.21064,44.4902053 M344.900968,44.3004231 C344.900968,45.0803949 344.817712,45.7813822 344.650103,46.400094 C344.481399,47.0220969 344.234916,47.5497571 343.908462,47.9808807 C343.580913,48.4141984 343.176681,48.7465914 342.695764,48.9835449 C342.213752,49.2161103 341.663821,49.33349 341.043778,49.33349 C340.779767,49.33349 340.53657,49.3071619 340.311996,49.2545056 C340.087423,49.2029462 339.868326,49.1195737 339.653612,49.006582 C339.439993,48.8946874 339.22747,48.7531735 339.016042,48.5820404 C338.804614,48.4098104 338.58004,48.2090581 338.343416,47.9753957 L338.343416,52.4336311 C338.343416,52.4862874 338.33027,52.5323617 338.303979,52.5718539 C338.277687,52.6113462 338.234963,52.6453534 338.175807,52.6705845 C338.116651,52.6969127 338.033395,52.7177558 337.928228,52.7309199 C337.823062,52.744084 337.687223,52.750666 337.521805,52.750666 C337.365151,52.750666 337.232598,52.744084 337.127431,52.7309199 C337.02117,52.7177558 336.936818,52.6969127 336.874375,52.6705845 C336.811933,52.6453534 336.769209,52.6113462 336.746204,52.5718539 C336.723199,52.5323617 336.711149,52.4862874 336.711149,52.4336311 L336.711149,39.9837016 C336.711149,39.9233662 336.721008,39.876195 336.740727,39.8388967 C336.760445,39.8048895 336.800978,39.7719793 336.860134,39.7456512 C336.91929,39.718226 336.994878,39.7006739 337.087994,39.6918978 C337.180015,39.6809278 337.291754,39.6754427 337.423212,39.6754427 C337.562338,39.6754427 337.676268,39.6809278 337.765002,39.6918978 C337.853736,39.7006739 337.928228,39.718226 337.987384,39.7456512 C338.046541,39.7719793 338.088169,39.8048895 338.111174,39.8388967 C338.134179,39.876195 338.145134,39.9233662 338.145134,39.9837016 L338.145134,41.180536 C338.416813,40.9040903 338.676442,40.6638458 338.927308,40.4576085 C339.178173,40.2546623 339.430134,40.0835292 339.684285,39.9485974 C339.937342,39.8114716 340.198066,39.7105469 340.465364,39.6403385 C340.732661,39.5712271 341.0142,39.5361229 341.311075,39.5361229 C341.95741,39.5361229 342.507341,39.6622786 342.963062,39.9134932 C343.417686,40.1658047 343.789055,40.5080708 344.076071,40.9435825 C344.363087,41.3790942 344.572324,41.8859113 344.703782,42.4629368 C344.836335,43.0421564 344.900968,43.6553832 344.900968,44.3004231" id="Fill-75" fill="#707372"></path>
        </g>
    </g>
</svg>